<svg width="1200" height="108" viewBox="0 0 1200 108" fill="none" xmlns="http://www.w3.org/2000/svg">
<path d="M916.888 32.8V44H918.056V33.824H925.144V44H926.312V32.8H916.888ZM937.195 39.792C937.195 37.264 935.483 35.52 933.115 35.52C930.747 35.52 929.003 37.296 929.003 39.792C929.003 42.288 930.795 44.08 933.419 44.08C934.747 44.08 935.915 43.6 936.667 42.704L936.027 41.968C935.387 42.704 934.475 43.072 933.451 43.072C931.611 43.072 930.267 41.904 930.139 40.144H937.179C937.179 40.016 937.195 39.888 937.195 39.792ZM933.115 36.496C934.763 36.496 935.963 37.648 936.107 39.296H930.139C930.283 37.648 931.483 36.496 933.115 36.496ZM944.046 35.52C942.654 35.52 941.486 36.128 940.798 37.248V35.584H939.71V47.104H940.846V42.416C941.55 43.504 942.702 44.08 944.046 44.08C946.446 44.08 948.238 42.352 948.238 39.792C948.238 37.248 946.446 35.52 944.046 35.52ZM943.966 43.072C942.174 43.072 940.83 41.76 940.83 39.792C940.83 37.84 942.174 36.512 943.966 36.512C945.742 36.512 947.102 37.84 947.102 39.792C947.102 41.76 945.742 43.072 943.966 43.072ZM958.055 39.792C958.055 37.264 956.343 35.52 953.975 35.52C951.607 35.52 949.863 37.296 949.863 39.792C949.863 42.288 951.655 44.08 954.279 44.08C955.607 44.08 956.775 43.6 957.527 42.704L956.887 41.968C956.247 42.704 955.335 43.072 954.311 43.072C952.471 43.072 951.127 41.904 950.999 40.144H958.039C958.039 40.016 958.055 39.888 958.055 39.792ZM953.975 36.496C955.623 36.496 956.823 37.648 956.967 39.296H950.999C951.143 37.648 952.343 36.496 953.975 36.496ZM967.293 43.008V35.584H961.085L960.973 38.4C960.861 40.672 960.653 42.928 959.405 43.008H958.925V46.032H959.997V44H967.533V46.032H968.605V43.008H967.293ZM962.013 38.464L962.109 36.592H966.157V43.008H960.909C961.757 42.368 961.933 40.384 962.013 38.464ZM981.903 43.008V35.584H975.695L975.583 38.4C975.471 40.672 975.263 42.928 974.015 43.008H973.535V46.032H974.607V44H982.143V46.032H983.215V43.008H981.903ZM976.623 38.464L976.719 36.592H980.767V43.008H975.519C976.367 42.368 976.543 40.384 976.623 38.464ZM988.901 44.08C991.365 44.08 993.173 42.288 993.173 39.792C993.173 37.296 991.365 35.52 988.901 35.52C986.437 35.52 984.613 37.296 984.613 39.792C984.613 42.288 986.437 44.08 988.901 44.08ZM988.901 43.072C987.109 43.072 985.765 41.76 985.765 39.792C985.765 37.824 987.109 36.512 988.901 36.512C990.693 36.512 992.021 37.824 992.021 39.792C992.021 41.76 990.693 43.072 988.901 43.072ZM999.12 44.08C1000.54 44.08 1001.74 43.504 1002.42 42.416L1001.57 41.84C1000.99 42.688 1000.1 43.072 999.12 43.072C997.28 43.072 995.936 41.776 995.936 39.792C995.936 37.824 997.28 36.512 999.12 36.512C1000.1 36.512 1000.99 36.912 1001.57 37.76L1002.42 37.184C1001.74 36.08 1000.54 35.52 999.12 35.52C996.608 35.52 994.784 37.28 994.784 39.792C994.784 42.304 996.608 44.08 999.12 44.08ZM1010.38 35.584H1002.88V36.592H1006.06V44H1007.2V36.592H1010.38V35.584ZM1014.92 35.52C1013.59 35.52 1012.34 35.936 1011.49 36.656L1012.01 37.504C1012.69 36.896 1013.72 36.512 1014.81 36.512C1016.37 36.512 1017.19 37.296 1017.19 38.736V39.248H1014.52C1012.1 39.248 1011.27 40.336 1011.27 41.632C1011.27 43.088 1012.44 44.08 1014.34 44.08C1015.73 44.08 1016.73 43.552 1017.24 42.688V44H1018.33V38.784C1018.33 36.608 1017.09 35.52 1014.92 35.52ZM1014.52 43.184C1013.17 43.184 1012.39 42.576 1012.39 41.6C1012.39 40.736 1012.92 40.096 1014.55 40.096H1017.19V41.472C1016.74 42.576 1015.8 43.184 1014.52 43.184ZM1026.71 39.648C1027.59 39.328 1028.13 38.688 1028.13 37.744C1028.13 36.352 1026.97 35.584 1025.06 35.584H1021.35V44H1025.17C1027.37 44 1028.42 43.168 1028.42 41.712C1028.42 40.608 1027.88 39.92 1026.71 39.648ZM1022.45 36.48H1024.98C1026.28 36.48 1027 36.944 1027 37.888C1027 38.832 1026.28 39.328 1024.98 39.328H1022.45V36.48ZM1025.13 43.104H1022.45V40.176H1025.24C1026.66 40.176 1027.3 40.64 1027.3 41.648C1027.3 42.656 1026.55 43.104 1025.13 43.104ZM1037.24 44H1038.59L1035.04 39.664L1038.35 35.584H1037.12L1034.16 39.28H1032.22V35.584H1031.08V44H1032.22V40.256H1034.14L1037.24 44ZM1043.56 44.08C1046.02 44.08 1047.83 42.288 1047.83 39.792C1047.83 37.296 1046.02 35.52 1043.56 35.52C1041.09 35.52 1039.27 37.296 1039.27 39.792C1039.27 42.288 1041.09 44.08 1043.56 44.08ZM1043.56 43.072C1041.76 43.072 1040.42 41.76 1040.42 39.792C1040.42 37.824 1041.76 36.512 1043.56 36.512C1045.35 36.512 1046.68 37.824 1046.68 39.792C1046.68 41.76 1045.35 43.072 1043.56 43.072ZM1054.08 34.384C1055.5 34.384 1056.45 33.648 1056.48 32.304H1055.66C1055.63 33.152 1054.99 33.68 1054.08 33.68C1053.17 33.68 1052.53 33.152 1052.51 32.304H1051.7C1051.73 33.648 1052.66 34.384 1054.08 34.384ZM1050.26 44H1051.28L1056.88 37.312V44H1058.02V35.584H1057.01L1051.39 42.272V35.584H1050.26V44ZM1068.98 44.08C1070.4 44.08 1071.6 43.504 1072.28 42.416L1071.43 41.84C1070.85 42.688 1069.96 43.072 1068.98 43.072C1067.14 43.072 1065.8 41.776 1065.8 39.792C1065.8 37.824 1067.14 36.512 1068.98 36.512C1069.96 36.512 1070.85 36.912 1071.43 37.76L1072.28 37.184C1071.6 36.08 1070.4 35.52 1068.98 35.52C1066.47 35.52 1064.64 37.28 1064.64 39.792C1064.64 42.304 1066.47 44.08 1068.98 44.08ZM1081.09 43.008V35.584H1074.88L1074.77 38.4C1074.66 40.672 1074.45 42.928 1073.2 43.008H1072.72V46.032H1073.79V44H1081.33V46.032H1082.4V43.008H1081.09ZM1075.81 38.464L1075.91 36.592H1079.95V43.008H1074.71C1075.55 42.368 1075.73 40.384 1075.81 38.464ZM1091.99 39.792C1091.99 37.264 1090.28 35.52 1087.91 35.52C1085.54 35.52 1083.8 37.296 1083.8 39.792C1083.8 42.288 1085.59 44.08 1088.22 44.08C1089.54 44.08 1090.71 43.6 1091.46 42.704L1090.82 41.968C1090.18 42.704 1089.27 43.072 1088.25 43.072C1086.41 43.072 1085.06 41.904 1084.94 40.144H1091.98C1091.98 40.016 1091.99 39.888 1091.99 39.792ZM1087.91 36.496C1089.56 36.496 1090.76 37.648 1090.9 39.296H1084.94C1085.08 37.648 1086.28 36.496 1087.91 36.496ZM1095.05 35.584L1094.91 38.592C1094.8 40.816 1094.67 43.072 1093.28 43.072C1093.17 43.072 1093.02 43.04 1092.88 43.008L1092.8 43.984C1093.1 44.064 1093.36 44.112 1093.61 44.112C1095.42 44.112 1095.79 41.616 1095.93 38.672L1096.05 36.592H1100.08V44H1101.21V35.584H1095.05ZM1107.34 35.52C1106.01 35.52 1104.76 35.936 1103.92 36.656L1104.43 37.504C1105.12 36.896 1106.14 36.512 1107.23 36.512C1108.8 36.512 1109.61 37.296 1109.61 38.736V39.248H1106.94C1104.52 39.248 1103.69 40.336 1103.69 41.632C1103.69 43.088 1104.86 44.08 1106.76 44.08C1108.16 44.08 1109.15 43.552 1109.66 42.688V44H1110.75V38.784C1110.75 36.608 1109.52 35.52 1107.34 35.52ZM1106.94 43.184C1105.6 43.184 1104.81 42.576 1104.81 41.6C1104.81 40.736 1105.34 40.096 1106.97 40.096H1109.61V41.472C1109.16 42.576 1108.22 43.184 1106.94 43.184ZM1121.15 39.792C1121.15 37.264 1119.44 35.52 1117.07 35.52C1114.7 35.52 1112.96 37.296 1112.96 39.792C1112.96 42.288 1114.75 44.08 1117.37 44.08C1118.7 44.08 1119.87 43.6 1120.62 42.704L1119.98 41.968C1119.34 42.704 1118.43 43.072 1117.4 43.072C1115.56 43.072 1114.22 41.904 1114.09 40.144H1121.13C1121.13 40.016 1121.15 39.888 1121.15 39.792ZM1117.07 36.496C1118.72 36.496 1119.92 37.648 1120.06 39.296H1114.09C1114.24 37.648 1115.44 36.496 1117.07 36.496ZM1132.01 35.584L1128.38 41.648L1124.81 35.584H1123.66V44H1124.7V37.328L1128.11 42.976H1128.62L1132.03 37.344V44H1133.07V35.584H1132.01ZM926.776 59.776C926.776 57.184 924.952 55.664 921.816 55.52V52.128H920.712V55.52C917.576 55.648 915.784 57.168 915.784 59.776C915.784 62.416 917.592 63.968 920.712 64.096V67.104H921.816V64.08C924.952 63.952 926.776 62.416 926.776 59.776ZM916.904 59.776C916.904 57.824 918.216 56.656 920.712 56.528V63.088C918.216 62.944 916.904 61.776 916.904 59.776ZM921.816 63.088V56.528C924.328 56.656 925.656 57.808 925.656 59.776C925.656 61.792 924.328 62.96 921.816 63.088ZM932.651 64.08C935.115 64.08 936.923 62.288 936.923 59.792C936.923 57.296 935.115 55.52 932.651 55.52C930.187 55.52 928.363 57.296 928.363 59.792C928.363 62.288 930.187 64.08 932.651 64.08ZM932.651 63.072C930.859 63.072 929.515 61.76 929.515 59.792C929.515 57.824 930.859 56.512 932.651 56.512C934.443 56.512 935.771 57.824 935.771 59.792C935.771 61.76 934.443 63.072 932.651 63.072ZM944.958 55.584H937.454V56.592H940.638V64H941.774V56.592H944.958V55.584ZM949.682 64.08C952.146 64.08 953.954 62.288 953.954 59.792C953.954 57.296 952.146 55.52 949.682 55.52C947.218 55.52 945.394 57.296 945.394 59.792C945.394 62.288 947.218 64.08 949.682 64.08ZM949.682 63.072C947.89 63.072 946.546 61.76 946.546 59.792C946.546 57.824 947.89 56.512 949.682 56.512C951.474 56.512 952.802 57.824 952.802 59.792C952.802 61.76 951.474 63.072 949.682 63.072ZM962.334 55.584H956.382V64H957.518V56.592H962.334V55.584ZM968.311 55.52C966.919 55.52 965.751 56.128 965.063 57.248V55.584H963.975V67.104H965.111V62.416C965.815 63.504 966.967 64.08 968.311 64.08C970.711 64.08 972.503 62.352 972.503 59.792C972.503 57.248 970.711 55.52 968.311 55.52ZM968.231 63.072C966.439 63.072 965.095 61.76 965.095 59.792C965.095 57.84 966.439 56.512 968.231 56.512C970.007 56.512 971.367 57.84 971.367 59.792C971.367 61.76 970.007 63.072 968.231 63.072ZM977.793 55.52C976.465 55.52 975.217 55.936 974.369 56.656L974.881 57.504C975.569 56.896 976.593 56.512 977.681 56.512C979.249 56.512 980.065 57.296 980.065 58.736V59.248H977.393C974.977 59.248 974.145 60.336 974.145 61.632C974.145 63.088 975.313 64.08 977.217 64.08C978.609 64.08 979.601 63.552 980.113 62.688V64H981.201V58.784C981.201 56.608 979.969 55.52 977.793 55.52ZM977.393 63.184C976.049 63.184 975.265 62.576 975.265 61.6C975.265 60.736 975.793 60.096 977.425 60.096H980.065V61.472C979.617 62.576 978.673 63.184 977.393 63.184ZM994.385 59.776C994.385 57.184 992.561 55.664 989.425 55.52V52.128H988.321V55.52C985.185 55.648 983.393 57.168 983.393 59.776C983.393 62.416 985.201 63.968 988.321 64.096V67.104H989.425V64.08C992.561 63.952 994.385 62.416 994.385 59.776ZM984.513 59.776C984.513 57.824 985.825 56.656 988.321 56.528V63.088C985.825 62.944 984.513 61.776 984.513 59.776ZM989.425 63.088V56.528C991.937 56.656 993.265 57.808 993.265 59.776C993.265 61.792 991.937 62.96 989.425 63.088ZM996.788 64H997.812L1003.41 57.312V64H1004.55V55.584H1003.54L997.924 62.272V55.584H996.788V64ZM1015.04 55.52C1012.81 55.52 1011.13 57.008 1010.88 59.216H1008.94V55.584H1007.8V64H1008.94V60.256H1010.86C1011.07 62.512 1012.78 64.08 1015.04 64.08C1017.44 64.08 1019.21 62.288 1019.21 59.792C1019.21 57.28 1017.44 55.52 1015.04 55.52ZM1015.04 63.088C1013.29 63.088 1011.98 61.76 1011.98 59.792C1011.98 57.824 1013.29 56.512 1015.04 56.512C1016.76 56.512 1018.09 57.824 1018.09 59.792C1018.09 61.76 1016.76 63.088 1015.04 63.088ZM1029.91 55.792C1028.33 55.792 1027.07 56.576 1026.39 57.872C1026.51 55.184 1027.59 53.984 1029.98 53.456L1033.53 52.64L1033.34 51.6L1029.56 52.464C1026.7 53.136 1025.31 54.896 1025.31 58.56C1025.31 61.984 1026.87 64.096 1029.71 64.096C1032.22 64.096 1033.95 62.384 1033.95 59.904C1033.95 57.472 1032.28 55.792 1029.91 55.792ZM1029.74 63.152C1027.95 63.152 1026.67 61.824 1026.67 59.936C1026.67 58.064 1027.93 56.816 1029.74 56.816C1031.55 56.816 1032.79 58.064 1032.79 59.936C1032.79 61.824 1031.53 63.152 1029.74 63.152ZM1042.18 55.584L1039.01 62.736L1035.84 55.584H1034.66L1038.42 63.984L1038.05 64.8C1037.57 65.856 1037.06 66.208 1036.31 66.208C1035.7 66.208 1035.19 65.984 1034.77 65.568L1034.24 66.416C1034.76 66.928 1035.51 67.184 1036.29 67.184C1037.49 67.184 1038.39 66.656 1039.09 65.008L1043.3 55.584H1042.18ZM1051.23 64H1052.57L1049.02 59.664L1052.33 55.584H1051.1L1048.14 59.28H1046.21V55.584H1045.07V64H1046.21V60.256H1048.13L1051.23 64ZM1061.45 59.792C1061.45 57.264 1059.73 55.52 1057.37 55.52C1055 55.52 1053.25 57.296 1053.25 59.792C1053.25 62.288 1055.05 64.08 1057.67 64.08C1059 64.08 1060.17 63.6 1060.92 62.704L1060.28 61.968C1059.64 62.704 1058.73 63.072 1057.7 63.072C1055.86 63.072 1054.52 61.904 1054.39 60.144H1061.43C1061.43 60.016 1061.45 59.888 1061.45 59.792ZM1057.37 56.496C1059.01 56.496 1060.21 57.648 1060.36 59.296H1054.39C1054.53 57.648 1055.73 56.496 1057.37 56.496ZM1069.5 55.584H1062V56.592H1065.18V64H1066.32V56.592H1069.5V55.584ZM1074.04 55.52C1072.72 55.52 1071.47 55.936 1070.62 56.656L1071.13 57.504C1071.82 56.896 1072.84 56.512 1073.93 56.512C1075.5 56.512 1076.32 57.296 1076.32 58.736V59.248H1073.64C1071.23 59.248 1070.4 60.336 1070.4 61.632C1070.4 63.088 1071.56 64.08 1073.47 64.08C1074.86 64.08 1075.85 63.552 1076.36 62.688V64H1077.45V58.784C1077.45 56.608 1076.22 55.52 1074.04 55.52ZM1073.64 63.184C1072.3 63.184 1071.52 62.576 1071.52 61.6C1071.52 60.736 1072.04 60.096 1073.68 60.096H1076.32V61.472C1075.87 62.576 1074.92 63.184 1073.64 63.184ZM1084.66 64H1085.69L1091.29 57.312V64H1092.42V55.584H1091.41L1085.8 62.272V55.584H1084.66V64ZM1103.34 64.08C1105.8 64.08 1107.61 62.288 1107.61 59.792C1107.61 57.296 1105.8 55.52 1103.34 55.52C1100.87 55.52 1099.05 57.296 1099.05 59.792C1099.05 62.288 1100.87 64.08 1103.34 64.08ZM1103.34 63.072C1101.55 63.072 1100.2 61.76 1100.2 59.792C1100.2 57.824 1101.55 56.512 1103.34 56.512C1105.13 56.512 1106.46 57.824 1106.46 59.792C1106.46 61.76 1105.13 63.072 1103.34 63.072ZM1115.65 55.584H1108.14V56.592H1111.33V64H1112.46V56.592H1115.65V55.584ZM1117.29 55.584V64H1118.42V56.592H1123.7V64H1124.84V55.584H1117.29ZM1132.41 55.52C1131.01 55.52 1129.85 56.128 1129.16 57.248V55.584H1128.07V67.104H1129.21V62.416C1129.91 63.504 1131.06 64.08 1132.41 64.08C1134.81 64.08 1136.6 62.352 1136.6 59.792C1136.6 57.248 1134.81 55.52 1132.41 55.52ZM1132.33 63.072C1130.53 63.072 1129.19 61.76 1129.19 59.792C1129.19 57.84 1130.53 56.512 1132.33 56.512C1134.1 56.512 1135.46 57.84 1135.46 59.792C1135.46 61.76 1134.1 63.072 1132.33 63.072ZM1141.89 55.52C1140.56 55.52 1139.31 55.936 1138.46 56.656L1138.98 57.504C1139.66 56.896 1140.69 56.512 1141.78 56.512C1143.34 56.512 1144.16 57.296 1144.16 58.736V59.248H1141.49C1139.07 59.248 1138.24 60.336 1138.24 61.632C1138.24 63.088 1139.41 64.08 1141.31 64.08C1142.7 64.08 1143.7 63.552 1144.21 62.688V64H1145.3V58.784C1145.3 56.608 1144.06 55.52 1141.89 55.52ZM1141.49 63.184C1140.14 63.184 1139.36 62.576 1139.36 61.6C1139.36 60.736 1139.89 60.096 1141.52 60.096H1144.16V61.472C1143.71 62.576 1142.77 63.184 1141.49 63.184ZM1153.68 59.648C1154.56 59.328 1155.1 58.688 1155.1 57.744C1155.1 56.352 1153.94 55.584 1152.03 55.584H1148.32V64H1152.14C1154.34 64 1155.39 63.168 1155.39 61.712C1155.39 60.608 1154.85 59.92 1153.68 59.648ZM1149.42 56.48H1151.95C1153.25 56.48 1153.97 56.944 1153.97 57.888C1153.97 58.832 1153.25 59.328 1151.95 59.328H1149.42V56.48ZM1152.1 63.104H1149.42V60.176H1152.21C1153.63 60.176 1154.27 60.64 1154.27 61.648C1154.27 62.656 1153.52 63.104 1152.1 63.104ZM1158.05 64H1159.08L1164.68 57.312V64H1165.81V55.584H1164.81L1159.19 62.272V55.584H1158.05V64ZM1177.42 55.584L1173.79 61.648L1170.22 55.584H1169.07V64H1170.11V57.328L1173.52 62.976H1174.03L1177.44 57.344V64H1178.48V55.584H1177.42ZM921.976 79.648C922.856 79.328 923.4 78.688 923.4 77.744C923.4 76.352 922.232 75.584 920.328 75.584H916.616V84H920.44C922.632 84 923.688 83.168 923.688 81.712C923.688 80.608 923.144 79.92 921.976 79.648ZM917.72 76.48H920.248C921.544 76.48 922.264 76.944 922.264 77.888C922.264 78.832 921.544 79.328 920.248 79.328H917.72V76.48ZM920.392 83.104H917.72V80.176H920.504C921.928 80.176 922.568 80.64 922.568 81.648C922.568 82.656 921.816 83.104 920.392 83.104ZM929.246 75.52C927.918 75.52 926.67 75.936 925.822 76.656L926.334 77.504C927.022 76.896 928.046 76.512 929.134 76.512C930.702 76.512 931.518 77.296 931.518 78.736V79.248H928.846C926.43 79.248 925.598 80.336 925.598 81.632C925.598 83.088 926.766 84.08 928.67 84.08C930.062 84.08 931.054 83.552 931.566 82.688V84H932.654V78.784C932.654 76.608 931.422 75.52 929.246 75.52ZM928.846 83.184C927.502 83.184 926.718 82.576 926.718 81.6C926.718 80.736 927.246 80.096 928.878 80.096H931.518V81.472C931.07 82.576 930.126 83.184 928.846 83.184ZM944.031 75.584L940.399 81.648L936.831 75.584H935.679V84H936.719V77.328L940.127 82.976H940.639L944.047 77.344V84H945.087V75.584H944.031ZM948.399 84.08C948.863 84.08 949.263 83.696 949.263 83.2C949.263 82.704 948.863 82.336 948.399 82.336C947.935 82.336 947.551 82.704 947.551 83.2C947.551 83.696 947.935 84.08 948.399 84.08Z" fill="#AE7C78"/>
<path d="M921.784 16.128C925.192 16.128 927.72 13.696 927.72 10.4C927.72 7.104 925.192 4.672 921.784 4.672C918.344 4.672 915.816 7.12 915.816 10.4C915.816 13.68 918.344 16.128 921.784 16.128ZM921.784 14.704C919.272 14.704 917.416 12.88 917.416 10.4C917.416 7.92 919.272 6.096 921.784 6.096C924.264 6.096 926.12 7.92 926.12 10.4C926.12 12.88 924.264 14.704 921.784 14.704ZM936.183 7.52H928.439V8.864H931.543V16H933.079V8.864H936.183V7.52ZM937.754 7.52V16H939.29V8.864H944.074V16H945.61V7.52H937.754ZM953.078 7.44C951.83 7.44 950.742 7.92 950.054 8.864V7.52H948.582V19.104H950.118V14.72C950.822 15.632 951.878 16.096 953.078 16.096C955.558 16.096 957.366 14.368 957.366 11.76C957.366 9.168 955.558 7.44 953.078 7.44ZM952.95 14.752C951.334 14.752 950.102 13.568 950.102 11.76C950.102 9.968 951.334 8.784 952.95 8.784C954.582 8.784 955.814 9.968 955.814 11.76C955.814 13.568 954.582 14.752 952.95 14.752ZM962.543 7.44C961.183 7.44 959.919 7.824 959.039 8.528L959.679 9.68C960.335 9.12 961.359 8.768 962.367 8.768C963.887 8.768 964.639 9.52 964.639 10.816V11.12H962.207C959.679 11.12 958.799 12.24 958.799 13.6C958.799 15.072 960.015 16.096 961.935 16.096C963.263 16.096 964.207 15.648 964.719 14.88V16H966.175V10.88C966.175 8.56 964.863 7.44 962.543 7.44ZM962.191 14.912C961.023 14.912 960.319 14.384 960.319 13.536C960.319 12.816 960.751 12.224 962.271 12.224H964.639V13.408C964.255 14.384 963.343 14.912 962.191 14.912ZM974.717 11.6C975.565 11.264 976.077 10.608 976.077 9.696C976.077 8.304 974.877 7.52 972.877 7.52H968.941V16H973.021C975.277 16 976.365 15.136 976.365 13.664C976.365 12.592 975.837 11.888 974.717 11.6ZM970.445 8.704H972.749C973.917 8.704 974.541 9.104 974.541 9.92C974.541 10.736 973.917 11.168 972.749 11.168H970.445V8.704ZM972.909 14.816H970.445V12.272H973.005C974.269 12.272 974.829 12.688 974.829 13.568C974.829 14.432 974.173 14.816 972.909 14.816ZM979.537 7.52L979.393 10.656C979.281 12.656 979.217 14.736 977.841 14.736C977.729 14.736 977.601 14.72 977.457 14.688L977.361 15.984C977.713 16.08 978.017 16.128 978.305 16.128C980.225 16.128 980.625 13.744 980.769 10.752L980.865 8.864H984.513V16H986.049V7.52H979.537ZM992.107 7.52C989.835 7.52 988.379 8.528 988.379 10.496C988.379 11.84 989.099 12.72 990.363 13.104L988.299 16H989.947L991.803 13.312H991.979H994.443V16H995.819V7.52H992.107ZM989.947 10.544C989.947 9.36 990.747 8.864 992.155 8.864H994.443V12.208H992.091C990.667 12.208 989.947 11.68 989.947 10.544ZM1006.48 11.808C1006.48 9.2 1004.74 7.44 1002.29 7.44C999.84 7.44 998.032 9.248 998.032 11.76C998.032 14.288 999.856 16.096 1002.59 16.096C1004 16.096 1005.17 15.616 1005.94 14.72L1005.09 13.728C1004.46 14.416 1003.63 14.752 1002.64 14.752C1000.96 14.752 999.76 13.76 999.568 12.272H1006.45C1006.46 12.128 1006.48 11.936 1006.48 11.808ZM1002.29 8.736C1003.78 8.736 1004.85 9.744 1005.01 11.168H999.568C999.728 9.728 1000.82 8.736 1002.29 8.736ZM1017.2 7.52L1013.78 13.248L1010.45 7.52H1008.86V16H1010.27V9.792L1013.41 15.04H1014.08L1017.25 9.808V16H1018.64V7.52H1017.2ZM1036.63 11.744C1036.63 9.12 1034.77 7.616 1031.62 7.44V4.128H1030.12V7.44C1026.93 7.6 1025.13 9.12 1025.13 11.744C1025.13 14.4 1026.95 15.936 1030.12 16.112V19.104H1031.62V16.112C1034.79 15.936 1036.63 14.384 1036.63 11.744ZM1026.65 11.744C1026.65 9.984 1027.78 8.96 1030.12 8.8V14.752C1027.8 14.592 1026.65 13.552 1026.65 11.744ZM1031.62 14.768V8.8C1033.94 8.96 1035.11 9.968 1035.11 11.744C1035.11 13.568 1033.94 14.592 1031.62 14.768ZM1042.43 16.096C1044.98 16.096 1046.83 14.288 1046.83 11.76C1046.83 9.232 1044.98 7.44 1042.43 7.44C1039.89 7.44 1038.02 9.232 1038.02 11.76C1038.02 14.288 1039.89 16.096 1042.43 16.096ZM1042.43 14.752C1040.8 14.752 1039.57 13.568 1039.57 11.76C1039.57 9.952 1040.8 8.784 1042.43 8.784C1044.06 8.784 1045.28 9.952 1045.28 11.76C1045.28 13.568 1044.06 14.752 1042.43 14.752ZM1055.06 7.52H1047.31V8.864H1050.42V16H1051.95V8.864H1055.06V7.52ZM1059.89 16.096C1062.43 16.096 1064.29 14.288 1064.29 11.76C1064.29 9.232 1062.43 7.44 1059.89 7.44C1057.34 7.44 1055.47 9.232 1055.47 11.76C1055.47 14.288 1057.34 16.096 1059.89 16.096ZM1059.89 14.752C1058.25 14.752 1057.02 13.568 1057.02 11.76C1057.02 9.952 1058.25 8.784 1059.89 8.784C1061.52 8.784 1062.73 9.952 1062.73 11.76C1062.73 13.568 1061.52 14.752 1059.89 14.752ZM1078.51 14.656V7.52H1076.98V14.656H1072.34V7.52H1070.8V16H1078.4V18.032H1079.86V14.656H1078.51ZM1087.62 11.6C1088.47 11.264 1088.98 10.608 1088.98 9.696C1088.98 8.304 1087.78 7.52 1085.78 7.52H1081.85V16H1085.93C1088.18 16 1089.27 15.136 1089.27 13.664C1089.27 12.592 1088.74 11.888 1087.62 11.6ZM1083.35 8.704H1085.66C1086.82 8.704 1087.45 9.104 1087.45 9.92C1087.45 10.736 1086.82 11.168 1085.66 11.168H1083.35V8.704ZM1085.82 14.816H1083.35V12.272H1085.91C1087.18 12.272 1087.74 12.688 1087.74 13.568C1087.74 14.432 1087.08 14.816 1085.82 14.816ZM1099.34 11.808C1099.34 9.2 1097.6 7.44 1095.15 7.44C1092.7 7.44 1090.89 9.248 1090.89 11.76C1090.89 14.288 1092.72 16.096 1095.45 16.096C1096.86 16.096 1098.03 15.616 1098.8 14.72L1097.95 13.728C1097.32 14.416 1096.49 14.752 1095.5 14.752C1093.82 14.752 1092.62 13.76 1092.43 12.272H1099.31C1099.32 12.128 1099.34 11.936 1099.34 11.808ZM1095.15 8.736C1096.64 8.736 1097.71 9.744 1097.87 11.168H1092.43C1092.59 9.728 1093.68 8.736 1095.15 8.736ZM1107.68 7.52H1099.94V8.864H1103.04V16H1104.58V8.864H1107.68V7.52ZM1112.51 16.096C1115.05 16.096 1116.91 14.288 1116.91 11.76C1116.91 9.232 1115.05 7.44 1112.51 7.44C1109.97 7.44 1108.09 9.232 1108.09 11.76C1108.09 14.288 1109.97 16.096 1112.51 16.096ZM1112.51 14.752C1110.88 14.752 1109.65 13.568 1109.65 11.76C1109.65 9.952 1110.88 8.784 1112.51 8.784C1114.14 8.784 1115.36 9.952 1115.36 11.76C1115.36 13.568 1114.14 14.752 1112.51 14.752ZM1124.9 11.6C1125.75 11.264 1126.26 10.608 1126.26 9.696C1126.26 8.304 1125.06 7.52 1123.06 7.52H1119.13V16H1123.21C1125.46 16 1126.55 15.136 1126.55 13.664C1126.55 12.592 1126.02 11.888 1124.9 11.6ZM1120.63 8.704H1122.94C1124.1 8.704 1124.73 9.104 1124.73 9.92C1124.73 10.736 1124.1 11.168 1122.94 11.168H1120.63V8.704ZM1123.1 14.816H1120.63V12.272H1123.19C1124.46 12.272 1125.02 12.688 1125.02 13.568C1125.02 14.432 1124.36 14.816 1123.1 14.816Z" fill="#AE7C78"/>
<path d="M887.679 9.18921H884.958C884.483 9.18921 884.099 9.5734 884.099 10.0475C884.099 10.5217 884.483 10.9059 884.958 10.9059H887.679C888.154 10.9059 888.538 10.5217 888.538 10.0475C888.538 9.5734 888.153 9.18921 887.679 9.18921Z" fill="#AE7C78"/>
<path d="M872.407 13.3298C867.607 13.3298 863.702 17.2362 863.702 22.0375C863.702 26.8372 867.607 30.7421 872.407 30.7421C877.208 30.7421 881.114 26.8372 881.114 22.0375C881.114 17.2362 877.208 13.3298 872.407 13.3298ZM872.407 29.0255C868.554 29.0255 865.419 25.8908 865.419 22.0377C865.419 18.1828 868.554 15.0465 872.407 15.0465C876.261 15.0465 879.398 18.1827 879.398 22.0377C879.398 25.8907 876.261 29.0255 872.407 29.0255Z" fill="#AE7C78"/>
<path d="M891.381 4.60615H880.954L879.944 1.81646C879.782 1.36715 879.286 0 877.887 0H864.534C863.135 0 862.64 1.36715 862.477 1.8168L861.467 4.60615H852.977V2.53116C852.977 1.40114 852.058 0.48181 850.928 0.48181H847.104C845.975 0.48181 845.058 1.40114 845.058 2.53116V4.64323C843.516 4.87967 842.332 6.21569 842.332 7.82352V25.3803L838.443 26.1346C836.809 26.4532 835.738 28.0416 836.056 29.6743L839.91 49.5583C840.191 50.9969 841.46 52 842.878 52C843.066 52 843.258 51.9823 843.45 51.9453L851.833 50.3187C852.299 50.2285 852.603 49.778 852.512 49.3126C852.422 48.8473 851.972 48.5429 851.506 48.6335L843.124 50.2598C842.418 50.3961 841.732 49.933 841.595 49.2303L837.741 29.3468C837.604 28.6422 838.066 27.9571 838.771 27.8195L859.675 23.7647C860.014 23.6998 860.36 23.7714 860.65 23.9672C860.94 24.1631 861.135 24.4575 861.2 24.798L865.058 44.678C865.195 45.3826 864.732 46.0677 864.028 46.2052L855.64 47.8318C855.175 47.9221 854.871 48.3726 854.961 48.8379C855.052 49.3032 855.502 49.607 855.967 49.5172L864.355 47.8903C865.99 47.5717 867.061 45.9833 866.742 44.3504L865.699 38.9747H875.28C875.754 38.9747 876.138 38.5905 876.138 38.1163C876.138 37.6422 875.754 37.258 875.28 37.258H865.366L864.462 32.5962C866.733 34.3052 869.517 35.2528 872.406 35.2528C878.134 35.2528 883.022 31.5909 884.853 26.4862H892.879V35.7572C892.879 36.5847 892.207 37.258 891.381 37.258H879.484C879.01 37.258 878.625 37.6422 878.625 38.1163C878.625 38.5905 879.01 38.9747 879.484 38.9747H891.381C893.154 38.9747 894.595 37.5313 894.595 35.7572V7.82352C894.595 6.0494 893.154 4.60615 891.381 4.60615ZM864.091 2.40127C864.255 1.94704 864.405 1.71678 864.534 1.71678H877.887C878.048 1.71678 878.217 2.08906 878.33 2.40092L879.128 4.60615H863.293L864.091 2.40127ZM859.192 22.0377C859.192 22.0617 859.193 22.0857 859.193 22.1096L852.977 23.3155V19.3063H859.477C859.291 20.188 859.192 21.1014 859.192 22.0377ZM846.774 2.53116C846.774 2.3508 846.925 2.19847 847.104 2.19847H850.928C851.111 2.19847 851.26 2.34771 851.26 2.53116V4.60615H846.774V2.53116ZM844.049 7.82352C844.049 6.99609 844.721 6.32281 845.546 6.32281H845.916H851.26V23.6484L848.355 24.212V14.5314C848.355 13.707 847.684 13.0363 846.859 13.0363H844.049V7.82352ZM844.049 14.753H846.638V24.5451L844.049 25.0473V14.753ZM872.407 33.5359C869.175 33.5359 866.095 32.1738 863.918 29.7919L862.886 24.4725C862.734 23.6825 862.281 22.9979 861.611 22.5448C861.391 22.3959 861.156 22.2787 860.911 22.1931C860.911 22.1413 860.909 22.0896 860.909 22.0377C860.909 15.6958 866.067 10.5363 872.406 10.5363C878.748 10.5363 883.908 15.6959 883.908 22.0377C883.908 28.3778 878.748 33.5359 872.407 33.5359ZM892.879 24.7693H885.34C885.526 23.8876 885.624 22.974 885.624 22.0377C885.624 21.1014 885.526 20.188 885.34 19.3063H892.879V24.7693ZM892.879 17.5896H884.854C883.023 12.4829 878.135 8.81964 872.407 8.81964C866.68 8.81964 861.793 12.483 859.963 17.5896H852.977V6.32281H862.07H880.351H891.381C892.207 6.32281 892.879 6.99609 892.879 7.82352V17.5896H892.879Z" fill="#AE7C78"/>
<path d="M862.002 43.462C862.204 43.1611 862.277 42.8087 862.209 42.4722L859.292 27.8132C859.136 27.0466 858.336 26.5781 857.469 26.7448L841.546 29.8329C840.675 30.0013 840.108 30.7378 840.257 31.5173L843.176 46.166C843.24 46.5049 843.441 46.8032 843.74 47.006C844.002 47.1834 844.323 47.2766 844.657 47.2766C844.77 47.2766 844.886 47.2658 845 47.2436L860.919 44.1554C861.371 44.0683 861.765 43.8155 862.002 43.462ZM843.639 39.6604L842.003 31.493L857.669 28.4545L858.619 33.2307L856.611 33.6208C852.78 34.3637 851.508 35.511 850.278 36.6203C849.087 37.6948 847.856 38.8038 843.639 39.6604ZM844.802 45.5335L844.402 43.4708L843.976 41.3432C848.66 40.3896 850.127 39.0685 851.428 37.8951C852.58 36.8558 853.575 35.9581 856.938 35.3061L858.954 34.9144L860.463 42.4954L844.802 45.5335Z" fill="#AE7C78"/>
<path d="M517.216 32.8H508.176V33.824H512.112V44H513.28V33.824H517.216V32.8ZM530.42 43.008V35.584H529.284V43.008H525.204V35.584H524.068V43.008H519.94V35.584H518.804V44H530.644V45.84H531.716V43.008H530.42ZM536.559 35.52C535.231 35.52 533.983 35.936 533.135 36.656L533.647 37.504C534.335 36.896 535.359 36.512 536.447 36.512C538.015 36.512 538.831 37.296 538.831 38.736V39.248H536.159C533.743 39.248 532.911 40.336 532.911 41.632C532.911 43.088 534.079 44.08 535.983 44.08C537.375 44.08 538.367 43.552 538.879 42.688V44H539.967V38.784C539.967 36.608 538.735 35.52 536.559 35.52ZM536.159 43.184C534.815 43.184 534.031 42.576 534.031 41.6C534.031 40.736 534.559 40.096 536.191 40.096H538.831V41.472C538.383 42.576 537.439 43.184 536.159 43.184ZM548.911 35.584H541.407V36.592H544.591V44H545.727V36.592H548.911V35.584ZM557.539 39.792C557.539 37.264 555.827 35.52 553.459 35.52C551.091 35.52 549.347 37.296 549.347 39.792C549.347 42.288 551.139 44.08 553.763 44.08C555.091 44.08 556.259 43.6 557.011 42.704L556.371 41.968C555.731 42.704 554.819 43.072 553.795 43.072C551.955 43.072 550.611 41.904 550.483 40.144H557.523C557.523 40.016 557.539 39.888 557.539 39.792ZM553.459 36.496C555.107 36.496 556.307 37.648 556.451 39.296H550.483C550.627 37.648 551.827 36.496 553.459 36.496ZM560.602 35.584L560.458 38.592C560.346 40.816 560.218 43.072 558.826 43.072C558.714 43.072 558.57 43.04 558.426 43.008L558.346 43.984C558.65 44.064 558.906 44.112 559.162 44.112C560.97 44.112 561.338 41.616 561.482 38.672L561.594 36.592H565.626V44H566.762V35.584H560.602ZM573.607 38.56L571.127 38.528V35.584H569.991V44L573.383 44.016C575.623 44.048 576.839 43.04 576.839 41.248C576.839 39.52 575.719 38.576 573.607 38.56ZM573.319 43.152L571.127 43.12V39.376L573.319 39.408C574.887 39.424 575.687 40 575.687 41.248C575.687 42.512 574.871 43.168 573.319 43.152ZM579.007 44H580.143V40.288H585.439V44H586.575V35.584H585.439V39.312H580.143V35.584H579.007V44ZM593.276 44.08C595.74 44.08 597.548 42.288 597.548 39.792C597.548 37.296 595.74 35.52 593.276 35.52C590.812 35.52 588.988 37.296 588.988 39.792C588.988 42.288 590.812 44.08 593.276 44.08ZM593.276 43.072C591.484 43.072 590.14 41.76 590.14 39.792C590.14 37.824 591.484 36.512 593.276 36.512C595.068 36.512 596.396 37.824 596.396 39.792C596.396 41.76 595.068 43.072 593.276 43.072ZM607.683 44.08C609.107 44.08 610.307 43.504 610.979 42.416L610.131 41.84C609.555 42.688 608.659 43.072 607.683 43.072C605.843 43.072 604.499 41.776 604.499 39.792C604.499 37.824 605.843 36.512 607.683 36.512C608.659 36.512 609.555 36.912 610.131 37.76L610.979 37.184C610.307 36.08 609.107 35.52 607.683 35.52C605.171 35.52 603.347 37.28 603.347 39.792C603.347 42.304 605.171 44.08 607.683 44.08ZM613.617 35.584L613.473 38.592C613.361 40.816 613.233 43.072 611.841 43.072C611.729 43.072 611.585 43.04 611.441 43.008L611.361 43.984C611.665 44.064 611.921 44.112 612.177 44.112C613.985 44.112 614.353 41.616 614.497 38.672L614.609 36.592H618.641V44H619.777V35.584H613.617ZM630.383 39.792C630.383 37.264 628.671 35.52 626.303 35.52C623.935 35.52 622.191 37.296 622.191 39.792C622.191 42.288 623.983 44.08 626.607 44.08C627.935 44.08 629.103 43.6 629.855 42.704L629.215 41.968C628.575 42.704 627.663 43.072 626.639 43.072C624.799 43.072 623.455 41.904 623.327 40.144H630.367C630.367 40.016 630.383 39.888 630.383 39.792ZM626.303 36.496C627.951 36.496 629.151 37.648 629.295 39.296H623.327C623.471 37.648 624.671 36.496 626.303 36.496ZM639.621 43.008V35.584H633.413L633.301 38.4C633.189 40.672 632.981 42.928 631.733 43.008H631.253V46.032H632.325V44H639.861V46.032H640.933V43.008H639.621ZM634.341 38.464L634.437 36.592H638.485V43.008H633.237C634.085 42.368 634.261 40.384 634.341 38.464ZM643.147 44H644.171L649.771 37.312V44H650.907V35.584H649.899L644.283 42.272V35.584H643.147V44ZM662.515 35.584L658.883 41.648L655.315 35.584H654.163V44H655.203V37.328L658.611 42.976H659.123L662.531 37.344V44H663.571V35.584H662.515ZM675.087 39.616C676.063 39.296 676.719 38.624 676.719 37.744C676.719 36.368 675.247 35.488 673.327 35.488C672.303 35.488 671.247 35.728 670.207 36.272L670.527 37.152C671.423 36.688 672.351 36.464 673.215 36.464C674.559 36.464 675.551 36.976 675.551 37.904C675.551 38.736 674.687 39.232 673.455 39.232H672.079V40.064H673.519C674.927 40.064 675.791 40.592 675.791 41.488C675.791 42.512 674.655 43.12 673.135 43.12C672.111 43.12 671.023 42.8 670.239 42.208L669.855 43.056C670.751 43.744 671.983 44.096 673.183 44.096C675.279 44.096 676.959 43.104 676.959 41.584C676.959 40.592 676.271 39.888 675.087 39.616ZM682.434 35.52C681.106 35.52 679.858 35.936 679.01 36.656L679.522 37.504C680.21 36.896 681.234 36.512 682.322 36.512C683.89 36.512 684.706 37.296 684.706 38.736V39.248H682.034C679.618 39.248 678.786 40.336 678.786 41.632C678.786 43.088 679.954 44.08 681.858 44.08C683.25 44.08 684.242 43.552 684.754 42.688V44H685.842V38.784C685.842 36.608 684.61 35.52 682.434 35.52ZM682.034 43.184C680.69 43.184 679.906 42.576 679.906 41.6C679.906 40.736 680.434 40.096 682.066 40.096H684.706V41.472C684.258 42.576 683.314 43.184 682.034 43.184ZM696.574 44.08C697.998 44.08 699.198 43.504 699.87 42.416L699.022 41.84C698.446 42.688 697.55 43.072 696.574 43.072C694.734 43.072 693.39 41.776 693.39 39.792C693.39 37.824 694.734 36.512 696.574 36.512C697.55 36.512 698.446 36.912 699.022 37.76L699.87 37.184C699.198 36.08 697.998 35.52 696.574 35.52C694.062 35.52 692.238 37.28 692.238 39.792C692.238 42.304 694.062 44.08 696.574 44.08ZM705.401 44.08C707.865 44.08 709.673 42.288 709.673 39.792C709.673 37.296 707.865 35.52 705.401 35.52C702.937 35.52 701.113 37.296 701.113 39.792C701.113 42.288 702.937 44.08 705.401 44.08ZM705.401 43.072C703.609 43.072 702.265 41.76 702.265 39.792C702.265 37.824 703.609 36.512 705.401 36.512C707.193 36.512 708.521 37.824 708.521 39.792C708.521 41.76 707.193 43.072 705.401 43.072ZM715.62 44.08C717.044 44.08 718.244 43.504 718.916 42.416L718.068 41.84C717.492 42.688 716.596 43.072 715.62 43.072C713.78 43.072 712.436 41.776 712.436 39.792C712.436 37.824 713.78 36.512 715.62 36.512C716.596 36.512 717.492 36.912 718.068 37.76L718.916 37.184C718.244 36.08 717.044 35.52 715.62 35.52C713.108 35.52 711.284 37.28 711.284 39.792C711.284 42.304 713.108 44.08 715.62 44.08ZM726.88 35.584H719.376V36.592H722.56V44H723.696V36.592H726.88V35.584ZM731.604 44.08C734.068 44.08 735.876 42.288 735.876 39.792C735.876 37.296 734.068 35.52 731.604 35.52C729.14 35.52 727.316 37.296 727.316 39.792C727.316 42.288 729.14 44.08 731.604 44.08ZM731.604 43.072C729.812 43.072 728.468 41.76 728.468 39.792C728.468 37.824 729.812 36.512 731.604 36.512C733.396 36.512 734.724 37.824 734.724 39.792C734.724 41.76 733.396 43.072 731.604 43.072ZM740.935 35.584C738.759 35.584 737.351 36.544 737.351 38.464C737.351 39.824 738.087 40.704 739.383 41.056L737.287 44H738.519L740.471 41.216H740.791H743.431V44H744.471V35.584H740.935ZM738.503 38.496C738.503 37.152 739.399 36.592 740.967 36.592H743.431V40.368H740.887C739.319 40.368 738.503 39.776 738.503 38.496ZM747.71 44H748.846V40.288H754.142V44H755.278V35.584H754.142V39.312H748.846V35.584H747.71V44ZM758.507 44H759.531L765.131 37.312V44H766.267V35.584H765.259L759.643 42.272V35.584H758.507V44ZM776.898 39.792C776.898 37.264 775.186 35.52 772.818 35.52C770.45 35.52 768.706 37.296 768.706 39.792C768.706 42.288 770.498 44.08 773.122 44.08C774.45 44.08 775.618 43.6 776.37 42.704L775.73 41.968C775.09 42.704 774.178 43.072 773.154 43.072C771.314 43.072 769.97 41.904 769.842 40.144H776.882C776.882 40.016 776.898 39.888 776.898 39.792ZM772.818 36.496C774.466 36.496 775.666 37.648 775.81 39.296H769.842C769.986 37.648 771.186 36.496 772.818 36.496ZM787.765 35.584L784.133 41.648L780.565 35.584H779.413V44H780.453V37.328L783.861 42.976H784.373L787.781 37.344V44H788.821V35.584H787.765ZM517.024 63.008V55.584H515.888V63.008H510.752V55.584H509.616V64H517.312V66.112H518.384V63.008H517.024ZM525.914 59.648C526.794 59.328 527.338 58.688 527.338 57.744C527.338 56.352 526.17 55.584 524.266 55.584H520.554V64H524.378C526.57 64 527.626 63.168 527.626 61.712C527.626 60.608 527.082 59.92 525.914 59.648ZM521.658 56.48H524.186C525.482 56.48 526.202 56.944 526.202 57.888C526.202 58.832 525.482 59.328 524.186 59.328H521.658V56.48ZM524.33 63.104H521.658V60.176H524.442C525.866 60.176 526.506 60.64 526.506 61.648C526.506 62.656 525.754 63.104 524.33 63.104ZM537.664 59.792C537.664 57.264 535.952 55.52 533.584 55.52C531.216 55.52 529.472 57.296 529.472 59.792C529.472 62.288 531.264 64.08 533.888 64.08C535.216 64.08 536.384 63.6 537.136 62.704L536.496 61.968C535.856 62.704 534.944 63.072 533.92 63.072C532.08 63.072 530.736 61.904 530.608 60.144H537.648C537.648 60.016 537.664 59.888 537.664 59.792ZM533.584 56.496C535.232 56.496 536.432 57.648 536.576 59.296H530.608C530.752 57.648 531.952 56.496 533.584 56.496ZM545.724 55.584H538.22V56.592H541.404V64H542.54V56.592H545.724V55.584ZM550.447 64.08C552.911 64.08 554.719 62.288 554.719 59.792C554.719 57.296 552.911 55.52 550.447 55.52C547.983 55.52 546.159 57.296 546.159 59.792C546.159 62.288 547.983 64.08 550.447 64.08ZM550.447 63.072C548.655 63.072 547.311 61.76 547.311 59.792C547.311 57.824 548.655 56.512 550.447 56.512C552.239 56.512 553.567 57.824 553.567 59.792C553.567 61.76 552.239 63.072 550.447 63.072ZM562.507 59.648C563.387 59.328 563.931 58.688 563.931 57.744C563.931 56.352 562.763 55.584 560.859 55.584H557.147V64H560.971C563.163 64 564.219 63.168 564.219 61.712C564.219 60.608 563.675 59.92 562.507 59.648ZM558.251 56.48H560.779C562.075 56.48 562.795 56.944 562.795 57.888C562.795 58.832 562.075 59.328 560.779 59.328H558.251V56.48ZM560.923 63.104H558.251V60.176H561.035C562.459 60.176 563.099 60.64 563.099 61.648C563.099 62.656 562.347 63.104 560.923 63.104ZM566.978 62.336C566.498 62.336 566.13 62.704 566.13 63.2C566.13 63.616 566.37 63.92 566.706 64.016L566.162 66.336H566.93L567.602 64.128C567.762 63.68 567.826 63.472 567.826 63.2C567.826 62.72 567.474 62.336 566.978 62.336ZM577.356 55.52C576.028 55.52 574.78 55.936 573.932 56.656L574.444 57.504C575.132 56.896 576.156 56.512 577.244 56.512C578.812 56.512 579.628 57.296 579.628 58.736V59.248H576.956C574.54 59.248 573.708 60.336 573.708 61.632C573.708 63.088 574.876 64.08 576.78 64.08C578.172 64.08 579.164 63.552 579.676 62.688V64H580.764V58.784C580.764 56.608 579.532 55.52 577.356 55.52ZM576.956 63.184C575.612 63.184 574.828 62.576 574.828 61.6C574.828 60.736 575.356 60.096 576.988 60.096H579.628V61.472C579.18 62.576 578.236 63.184 576.956 63.184ZM591.447 64.08C593.911 64.08 595.719 62.288 595.719 59.792C595.719 57.296 593.911 55.52 591.447 55.52C588.983 55.52 587.159 57.296 587.159 59.792C587.159 62.288 588.983 64.08 591.447 64.08ZM591.447 63.072C589.655 63.072 588.311 61.76 588.311 59.792C588.311 57.824 589.655 56.512 591.447 56.512C593.239 56.512 594.567 57.824 594.567 59.792C594.567 61.76 593.239 63.072 591.447 63.072ZM598.147 55.584V64H599.283V56.592H604.563V64H605.699V55.584H598.147ZM612.465 58.56L610.065 58.528V55.584H608.929V64L612.257 64.016C614.481 64.048 615.713 63.04 615.713 61.248C615.713 59.52 614.577 58.576 612.465 58.56ZM617.121 64H618.257V55.584H617.121V64ZM612.193 63.152L610.065 63.12V59.376L612.193 59.408C613.761 59.424 614.561 60 614.561 61.248C614.561 62.512 613.745 63.168 612.193 63.152ZM627.411 55.584H619.907V56.592H623.091V64H624.227V56.592H627.411V55.584ZM629.054 64H630.19V60.288H635.486V64H636.622V55.584H635.486V59.312H630.19V55.584H629.054V64ZM643.386 58.56L640.986 58.528V55.584H639.85V64L643.178 64.016C645.402 64.048 646.634 63.04 646.634 61.248C646.634 59.52 645.498 58.576 643.386 58.56ZM648.042 64H649.178V55.584H648.042V64ZM643.114 63.152L640.986 63.12V59.376L643.114 59.408C644.682 59.424 645.482 60 645.482 61.248C645.482 62.512 644.666 63.168 643.114 63.152ZM659.789 59.792C659.789 57.264 658.077 55.52 655.709 55.52C653.341 55.52 651.597 57.296 651.597 59.792C651.597 62.288 653.389 64.08 656.013 64.08C657.341 64.08 658.509 63.6 659.261 62.704L658.621 61.968C657.981 62.704 657.069 63.072 656.045 63.072C654.205 63.072 652.861 61.904 652.733 60.144H659.773C659.773 60.016 659.789 59.888 659.789 59.792ZM655.709 56.496C657.357 56.496 658.557 57.648 658.701 59.296H652.733C652.877 57.648 654.077 56.496 655.709 56.496ZM676.651 59.776C676.651 57.184 674.827 55.664 671.691 55.52V52.128H670.587V55.52C667.451 55.648 665.659 57.168 665.659 59.776C665.659 62.416 667.467 63.968 670.587 64.096V67.104H671.691V64.08C674.827 63.952 676.651 62.416 676.651 59.776ZM666.779 59.776C666.779 57.824 668.091 56.656 670.587 56.528V63.088C668.091 62.944 666.779 61.776 666.779 59.776ZM671.691 63.088V56.528C674.203 56.656 675.531 57.808 675.531 59.776C675.531 61.792 674.203 62.96 671.691 63.088ZM679.727 55.584L679.583 58.592C679.471 60.816 679.343 63.072 677.951 63.072C677.839 63.072 677.695 63.04 677.551 63.008L677.471 63.984C677.775 64.064 678.031 64.112 678.287 64.112C680.095 64.112 680.463 61.616 680.607 58.672L680.719 56.592H684.751V64H685.887V55.584H679.727ZM692.588 64.08C695.052 64.08 696.86 62.288 696.86 59.792C696.86 57.296 695.052 55.52 692.588 55.52C690.124 55.52 688.3 57.296 688.3 59.792C688.3 62.288 690.124 64.08 692.588 64.08ZM692.588 63.072C690.796 63.072 689.452 61.76 689.452 59.792C689.452 57.824 690.796 56.512 692.588 56.512C694.38 56.512 695.708 57.824 695.708 59.792C695.708 61.76 694.38 63.072 692.588 63.072ZM703.624 55.52C702.232 55.52 701.064 56.128 700.376 57.248V55.584H699.288V67.104H700.424V62.416C701.128 63.504 702.28 64.08 703.624 64.08C706.024 64.08 707.816 62.352 707.816 59.792C707.816 57.248 706.024 55.52 703.624 55.52ZM703.544 63.072C701.752 63.072 700.408 61.76 700.408 59.792C700.408 57.84 701.752 56.512 703.544 56.512C705.32 56.512 706.68 57.84 706.68 59.792C706.68 61.76 705.32 63.072 703.544 63.072ZM710.257 64H711.281L716.881 57.312V64H718.017V55.584H717.009L711.393 62.272V55.584H710.257V64ZM724.792 64.08C726.216 64.08 727.416 63.504 728.088 62.416L727.24 61.84C726.664 62.688 725.768 63.072 724.792 63.072C722.952 63.072 721.608 61.776 721.608 59.792C721.608 57.824 722.952 56.512 724.792 56.512C725.768 56.512 726.664 56.912 727.24 57.76L728.088 57.184C727.416 56.08 726.216 55.52 724.792 55.52C722.28 55.52 720.456 57.28 720.456 59.792C720.456 62.304 722.28 64.08 724.792 64.08ZM736.052 55.584H728.548V56.592H731.732V64H732.868V56.592H736.052V55.584ZM741.23 58.56L738.83 58.528V55.584H737.694V64L741.022 64.016C743.246 64.048 744.478 63.04 744.478 61.248C744.478 59.52 743.342 58.576 741.23 58.56ZM745.886 64H747.022V55.584H745.886V64ZM740.958 63.152L738.83 63.12V59.376L740.958 59.408C742.526 59.424 743.326 60 743.326 61.248C743.326 62.512 742.51 63.168 740.958 63.152ZM513.088 84.08C515.552 84.08 517.36 82.288 517.36 79.792C517.36 77.296 515.552 75.52 513.088 75.52C510.624 75.52 508.8 77.296 508.8 79.792C508.8 82.288 510.624 84.08 513.088 84.08ZM513.088 83.072C511.296 83.072 509.952 81.76 509.952 79.792C509.952 77.824 511.296 76.512 513.088 76.512C514.88 76.512 516.208 77.824 516.208 79.792C516.208 81.76 514.88 83.072 513.088 83.072ZM525.395 75.584H517.891V76.592H521.075V84H522.211V76.592H525.395V75.584ZM531.118 75.792C529.534 75.792 528.27 76.576 527.598 77.872C527.71 75.184 528.798 73.984 531.182 73.456L534.734 72.64L534.542 71.6L530.766 72.464C527.902 73.136 526.51 74.896 526.51 78.56C526.51 81.984 528.078 84.096 530.91 84.096C533.422 84.096 535.15 82.384 535.15 79.904C535.15 77.472 533.486 75.792 531.118 75.792ZM530.942 83.152C529.15 83.152 527.87 81.824 527.87 79.936C527.87 78.064 529.134 76.816 530.942 76.816C532.75 76.816 533.998 78.064 533.998 79.936C533.998 81.824 532.734 83.152 530.942 83.152ZM537.585 84H538.609L544.209 77.312V84H545.345V75.584H544.337L538.721 82.272V75.584H537.585V84ZM552.936 75.52C551.544 75.52 550.376 76.128 549.688 77.248V75.584H548.6V87.104H549.736V82.416C550.44 83.504 551.592 84.08 552.936 84.08C555.336 84.08 557.128 82.352 557.128 79.792C557.128 77.248 555.336 75.52 552.936 75.52ZM552.856 83.072C551.064 83.072 549.72 81.76 549.72 79.792C549.72 77.84 551.064 76.512 552.856 76.512C554.632 76.512 555.992 77.84 555.992 79.792C555.992 81.76 554.632 83.072 552.856 83.072ZM562.418 75.52C561.09 75.52 559.842 75.936 558.994 76.656L559.506 77.504C560.194 76.896 561.218 76.512 562.306 76.512C563.874 76.512 564.69 77.296 564.69 78.736V79.248H562.018C559.602 79.248 558.77 80.336 558.77 81.632C558.77 83.088 559.938 84.08 561.842 84.08C563.234 84.08 564.226 83.552 564.738 82.688V84H565.826V78.784C565.826 76.608 564.594 75.52 562.418 75.52ZM562.018 83.184C560.674 83.184 559.89 82.576 559.89 81.6C559.89 80.736 560.418 80.096 562.05 80.096H564.69V81.472C564.242 82.576 563.298 83.184 562.018 83.184ZM576.082 75.52C573.858 75.52 572.178 77.008 571.922 79.216H569.986V75.584H568.85V84H569.986V80.256H571.906C572.114 82.512 573.826 84.08 576.082 84.08C578.482 84.08 580.258 82.288 580.258 79.792C580.258 77.28 578.482 75.52 576.082 75.52ZM576.082 83.088C574.338 83.088 573.026 81.76 573.026 79.792C573.026 77.824 574.338 76.512 576.082 76.512C577.81 76.512 579.138 77.824 579.138 79.792C579.138 81.76 577.81 83.088 576.082 83.088ZM588.302 75.584H580.798V76.592H583.982V84H585.118V76.592H588.302V75.584ZM601.028 83.008V75.584H594.82L594.708 78.4C594.596 80.672 594.388 82.928 593.14 83.008H592.66V86.032H593.732V84H601.268V86.032H602.34V83.008H601.028ZM595.748 78.464L595.844 76.592H599.892V83.008H594.644C595.492 82.368 595.668 80.384 595.748 78.464ZM605.274 75.584L605.13 78.592C605.018 80.816 604.89 83.072 603.498 83.072C603.386 83.072 603.242 83.04 603.098 83.008L603.018 83.984C603.322 84.064 603.578 84.112 603.834 84.112C605.642 84.112 606.01 81.616 606.154 78.672L606.266 76.592H610.298V84H611.434V75.584H605.274ZM617.591 75.584C615.415 75.584 614.007 76.544 614.007 78.464C614.007 79.824 614.743 80.704 616.039 81.056L613.943 84H615.175L617.127 81.216H617.447H620.087V84H621.127V75.584H617.591ZM615.159 78.496C615.159 77.152 616.055 76.592 617.623 76.592H620.087V80.368H617.543C615.975 80.368 615.159 79.776 615.159 78.496ZM632.634 75.792C631.049 75.792 629.786 76.576 629.114 77.872C629.226 75.184 630.314 73.984 632.698 73.456L636.25 72.64L636.058 71.6L632.282 72.464C629.418 73.136 628.026 74.896 628.026 78.56C628.026 81.984 629.594 84.096 632.426 84.096C634.938 84.096 636.666 82.384 636.666 79.904C636.666 77.472 635.002 75.792 632.634 75.792ZM632.458 83.152C630.666 83.152 629.386 81.824 629.386 79.936C629.386 78.064 630.65 76.816 632.458 76.816C634.266 76.816 635.514 78.064 635.514 79.936C635.514 81.824 634.25 83.152 632.458 83.152ZM644.898 75.584L641.73 82.736L638.562 75.584H637.378L641.138 83.984L640.77 84.8C640.29 85.856 639.778 86.208 639.026 86.208C638.418 86.208 637.906 85.984 637.49 85.568L636.962 86.416C637.474 86.928 638.226 87.184 639.01 87.184C640.21 87.184 641.106 86.656 641.81 85.008L646.018 75.584H644.898ZM653.948 84H655.292L651.74 79.664L655.052 75.584H653.82L650.86 79.28H648.924V75.584H647.788V84H648.924V80.256H650.844L653.948 84ZM664.164 79.792C664.164 77.264 662.452 75.52 660.084 75.52C657.716 75.52 655.972 77.296 655.972 79.792C655.972 82.288 657.764 84.08 660.388 84.08C661.716 84.08 662.884 83.6 663.636 82.704L662.996 81.968C662.356 82.704 661.444 83.072 660.42 83.072C658.58 83.072 657.236 81.904 657.108 80.144H664.148C664.148 80.016 664.164 79.888 664.164 79.792ZM660.084 76.496C661.732 76.496 662.932 77.648 663.076 79.296H657.108C657.252 77.648 658.452 76.496 660.084 76.496ZM672.224 75.584H664.72V76.592H667.904V84H669.04V76.592H672.224V75.584ZM676.947 84.08C679.411 84.08 681.219 82.288 681.219 79.792C681.219 77.296 679.411 75.52 676.947 75.52C674.483 75.52 672.659 77.296 672.659 79.792C672.659 82.288 674.483 84.08 676.947 84.08ZM676.947 83.072C675.155 83.072 673.811 81.76 673.811 79.792C673.811 77.824 675.155 76.512 676.947 76.512C678.739 76.512 680.067 77.824 680.067 79.792C680.067 81.76 678.739 83.072 676.947 83.072ZM689.007 79.648C689.887 79.328 690.431 78.688 690.431 77.744C690.431 76.352 689.263 75.584 687.359 75.584H683.647V84H687.471C689.663 84 690.719 83.168 690.719 81.712C690.719 80.608 690.175 79.92 689.007 79.648ZM684.751 76.48H687.279C688.575 76.48 689.295 76.944 689.295 77.888C689.295 78.832 688.575 79.328 687.279 79.328H684.751V76.48ZM687.423 83.104H684.751V80.176H687.535C688.959 80.176 689.599 80.64 689.599 81.648C689.599 82.656 688.847 83.104 687.423 83.104ZM703.729 84H705.073L701.521 79.664L704.833 75.584H703.601L700.641 79.28H698.705V75.584H697.569V84H698.705V80.256H700.625L703.729 84ZM709.606 75.52C708.278 75.52 707.03 75.936 706.182 76.656L706.694 77.504C707.382 76.896 708.406 76.512 709.494 76.512C711.062 76.512 711.878 77.296 711.878 78.736V79.248H709.206C706.79 79.248 705.958 80.336 705.958 81.632C705.958 83.088 707.126 84.08 709.03 84.08C710.422 84.08 711.414 83.552 711.926 82.688V84H713.014V78.784C713.014 76.608 711.782 75.52 709.606 75.52ZM709.206 83.184C707.862 83.184 707.078 82.576 707.078 81.6C707.078 80.736 707.606 80.096 709.238 80.096H711.878V81.472C711.43 82.576 710.486 83.184 709.206 83.184ZM726.006 84H727.366L724.342 79.68L727.126 75.584H725.894L723.414 79.28H721.59V75.584H720.454V79.28H718.63L716.166 75.584H714.934L717.718 79.664L714.694 84H716.054L718.63 80.256H720.454V84H721.59V80.256H723.414L726.006 84ZM736.153 83.008V75.584H729.945L729.833 78.4C729.721 80.672 729.513 82.928 728.265 83.008H727.785V86.032H728.857V84H736.393V86.032H737.465V83.008H736.153ZM730.873 78.464L730.969 76.592H735.017V83.008H729.769C730.617 82.368 730.793 80.384 730.873 78.464ZM743.215 78.56L740.815 78.528V75.584H739.679V84L743.007 84.016C745.231 84.048 746.463 83.04 746.463 81.248C746.463 79.52 745.327 78.576 743.215 78.56ZM747.871 84H749.007V75.584H747.871V84ZM742.943 83.152L740.815 83.12V79.376L742.943 79.408C744.511 79.424 745.311 80 745.311 81.248C745.311 82.512 744.495 83.168 742.943 83.152ZM756.065 74.384C757.489 74.384 758.433 73.648 758.465 72.304H757.649C757.617 73.152 756.977 73.68 756.065 73.68C755.153 73.68 754.513 73.152 754.497 72.304H753.681C753.713 73.648 754.641 74.384 756.065 74.384ZM752.241 84H753.265L758.865 77.312V84H760.001V75.584H758.993L753.377 82.272V75.584H752.241V84ZM517.024 103.008V95.584H515.888V103.008H510.752V95.584H509.616V104H517.312V106.112H518.384V103.008H517.024ZM525.914 99.648C526.794 99.328 527.338 98.688 527.338 97.744C527.338 96.352 526.17 95.584 524.266 95.584H520.554V104H524.378C526.57 104 527.626 103.168 527.626 101.712C527.626 100.608 527.082 99.92 525.914 99.648ZM521.658 96.48H524.186C525.482 96.48 526.202 96.944 526.202 97.888C526.202 98.832 525.482 99.328 524.186 99.328H521.658V96.48ZM524.33 103.104H521.658V100.176H524.442C525.866 100.176 526.506 100.64 526.506 101.648C526.506 102.656 525.754 103.104 524.33 103.104ZM537.664 99.792C537.664 97.264 535.952 95.52 533.584 95.52C531.216 95.52 529.472 97.296 529.472 99.792C529.472 102.288 531.264 104.08 533.888 104.08C535.216 104.08 536.384 103.6 537.136 102.704L536.496 101.968C535.856 102.704 534.944 103.072 533.92 103.072C532.08 103.072 530.736 101.904 530.608 100.144H537.648C537.648 100.016 537.664 99.888 537.664 99.792ZM533.584 96.496C535.232 96.496 536.432 97.648 536.576 99.296H530.608C530.752 97.648 531.952 96.496 533.584 96.496ZM545.724 95.584H538.22V96.592H541.404V104H542.54V96.592H545.724V95.584ZM550.447 104.08C552.911 104.08 554.719 102.288 554.719 99.792C554.719 97.296 552.911 95.52 550.447 95.52C547.983 95.52 546.159 97.296 546.159 99.792C546.159 102.288 547.983 104.08 550.447 104.08ZM550.447 103.072C548.655 103.072 547.311 101.76 547.311 99.792C547.311 97.824 548.655 96.512 550.447 96.512C552.239 96.512 553.567 97.824 553.567 99.792C553.567 101.76 552.239 103.072 550.447 103.072ZM563.307 104H564.651L561.099 99.664L564.411 95.584H563.179L560.219 99.28H558.283V95.584H557.147V104H558.283V100.256H560.203L563.307 104ZM566.524 104.08C566.988 104.08 567.388 103.696 567.388 103.2C567.388 102.704 566.988 102.336 566.524 102.336C566.06 102.336 565.676 102.704 565.676 103.2C565.676 103.696 566.06 104.08 566.524 104.08Z" fill="#AE7C78"/>
<path d="M516.72 10.192C517.808 9.776 518.464 8.912 518.464 7.68C518.464 5.808 516.992 4.8 514.56 4.8H509.744V16H514.864C517.616 16 519.024 14.864 519.024 12.944C519.024 11.488 518.224 10.56 516.72 10.192ZM511.328 6.064H514.448C515.984 6.064 516.848 6.704 516.848 7.904C516.848 9.104 515.984 9.728 514.448 9.728H511.328V6.064ZM514.832 14.736H511.328V10.944H514.832C516.512 10.944 517.408 11.52 517.408 12.816C517.408 14.128 516.512 14.736 514.832 14.736ZM525.137 16.096C526.657 16.096 527.921 15.456 528.593 14.272L527.425 13.536C526.881 14.368 526.049 14.752 525.121 14.752C523.457 14.752 522.209 13.6 522.209 11.76C522.209 9.952 523.457 8.784 525.121 8.784C526.049 8.784 526.881 9.168 527.425 10L528.593 9.248C527.921 8.064 526.657 7.44 525.137 7.44C522.529 7.44 520.657 9.232 520.657 11.76C520.657 14.288 522.529 16.096 525.137 16.096ZM538.121 11.808C538.121 9.2 536.377 7.44 533.929 7.44C531.481 7.44 529.673 9.248 529.673 11.76C529.673 14.288 531.497 16.096 534.233 16.096C535.641 16.096 536.809 15.616 537.577 14.72L536.729 13.728C536.105 14.416 535.273 14.752 534.281 14.752C532.601 14.752 531.401 13.76 531.209 12.272H538.089C538.105 12.128 538.121 11.936 538.121 11.808ZM533.929 8.736C535.417 8.736 536.489 9.744 536.649 11.168H531.209C531.369 9.728 532.457 8.736 533.929 8.736ZM546.744 7.52H540.504V16H542.04V8.864H546.744V7.52ZM555.097 14.656V7.52H548.521L548.393 10.384C548.281 12.528 548.073 14.592 546.857 14.656H546.409V17.968H547.865V16H554.953V17.968H556.393V14.656H555.097ZM549.801 10.496L549.881 8.864H553.561V14.656H548.809C549.577 13.984 549.737 12.256 549.801 10.496ZM561.418 7.44C560.058 7.44 558.794 7.824 557.914 8.528L558.554 9.68C559.21 9.12 560.234 8.768 561.242 8.768C562.762 8.768 563.514 9.52 563.514 10.816V11.12H561.082C558.554 11.12 557.674 12.24 557.674 13.6C557.674 15.072 558.89 16.096 560.81 16.096C562.138 16.096 563.082 15.648 563.594 14.88V16H565.05V10.88C565.05 8.56 563.738 7.44 561.418 7.44ZM561.066 14.912C559.898 14.912 559.194 14.384 559.194 13.536C559.194 12.816 559.626 12.224 561.146 12.224H563.514V13.408C563.13 14.384 562.218 14.912 561.066 14.912ZM575.809 16.096C577.329 16.096 578.593 15.456 579.265 14.272L578.097 13.536C577.553 14.368 576.721 14.752 575.793 14.752C574.129 14.752 572.881 13.6 572.881 11.76C572.881 9.952 574.129 8.784 575.793 8.784C576.721 8.784 577.553 9.168 578.097 10L579.265 9.248C578.593 8.064 577.329 7.44 575.809 7.44C573.201 7.44 571.329 9.232 571.329 11.76C571.329 14.288 573.201 16.096 575.809 16.096ZM587.03 11.6C587.878 11.264 588.39 10.608 588.39 9.696C588.39 8.304 587.19 7.52 585.19 7.52H581.254V16H585.334C587.59 16 588.678 15.136 588.678 13.664C588.678 12.592 588.15 11.888 587.03 11.6ZM582.758 8.704H585.062C586.23 8.704 586.854 9.104 586.854 9.92C586.854 10.736 586.23 11.168 585.062 11.168H582.758V8.704ZM585.222 14.816H582.758V12.272H585.318C586.582 12.272 587.142 12.688 587.142 13.568C587.142 14.432 586.486 14.816 585.222 14.816ZM598.746 11.808C598.746 9.2 597.002 7.44 594.554 7.44C592.106 7.44 590.298 9.248 590.298 11.76C590.298 14.288 592.122 16.096 594.858 16.096C596.266 16.096 597.434 15.616 598.202 14.72L597.354 13.728C596.73 14.416 595.898 14.752 594.906 14.752C593.226 14.752 592.026 13.76 591.834 12.272H598.714C598.73 12.128 598.746 11.936 598.746 11.808ZM594.554 8.736C596.042 8.736 597.114 9.744 597.274 11.168H591.834C591.994 9.728 593.082 8.736 594.554 8.736ZM610.958 16H612.782L609.87 11.632L612.558 7.52H610.91L608.622 11.104H606.958V7.52H605.422V11.104H603.758L601.47 7.52H599.838L602.526 11.616L599.614 16H601.438L603.774 12.416H605.422V16H606.958V12.416H608.606L610.958 16ZM614.472 16H615.88L621.064 9.824V16H622.6V7.52H621.208L616.008 13.696V7.52H614.472V16ZM633.246 11.808C633.246 9.2 631.502 7.44 629.054 7.44C626.606 7.44 624.798 9.248 624.798 11.76C624.798 14.288 626.622 16.096 629.358 16.096C630.766 16.096 631.934 15.616 632.702 14.72L631.854 13.728C631.23 14.416 630.398 14.752 629.406 14.752C627.726 14.752 626.526 13.76 626.334 12.272H633.214C633.23 12.128 633.246 11.936 633.246 11.808ZM629.054 8.736C630.542 8.736 631.614 9.744 631.774 11.168H626.334C626.494 9.728 627.582 8.736 629.054 8.736ZM647.638 14.656V7.52H646.102V14.656H641.462V7.52H639.926V16H647.526V18.032H648.982V14.656H647.638ZM656.748 11.6C657.596 11.264 658.108 10.608 658.108 9.696C658.108 8.304 656.908 7.52 654.908 7.52H650.972V16H655.052C657.308 16 658.396 15.136 658.396 13.664C658.396 12.592 657.868 11.888 656.748 11.6ZM652.476 8.704H654.78C655.948 8.704 656.572 9.104 656.572 9.92C656.572 10.736 655.948 11.168 654.78 11.168H652.476V8.704ZM654.94 14.816H652.476V12.272H655.036C656.3 12.272 656.86 12.688 656.86 13.568C656.86 14.432 656.204 14.816 654.94 14.816ZM668.465 11.808C668.465 9.2 666.721 7.44 664.273 7.44C661.825 7.44 660.017 9.248 660.017 11.76C660.017 14.288 661.841 16.096 664.577 16.096C665.985 16.096 667.153 15.616 667.921 14.72L667.073 13.728C666.449 14.416 665.617 14.752 664.625 14.752C662.945 14.752 661.745 13.76 661.553 12.272H668.433C668.449 12.128 668.465 11.936 668.465 11.808ZM664.273 8.736C665.761 8.736 666.833 9.744 666.993 11.168H661.553C661.713 9.728 662.801 8.736 664.273 8.736ZM676.808 7.52H669.064V8.864H672.168V16H673.704V8.864H676.808V7.52ZM682.203 10.4L679.915 10.384V7.52H678.379V16L681.947 16.016C684.219 16.032 685.499 15.008 685.499 13.168C685.499 11.424 684.347 10.416 682.203 10.4ZM686.763 16H688.299V7.52H686.763V16ZM681.835 14.848L679.915 14.832V11.504L681.835 11.536C683.227 11.552 683.947 12.032 683.947 13.152C683.947 14.288 683.211 14.864 681.835 14.848Z" fill="#AE7C78"/>
<g clip-path="url(#clip0)">
<path d="M471.702 13.8987C471.914 13.8987 472.127 13.882 472.34 13.8483C473.4 13.6802 474.331 13.1093 474.962 12.2408L478.789 6.97096C478.944 6.75738 478.978 6.47869 478.878 6.23443C478.778 5.99018 478.558 5.81519 478.298 5.77192C478.23 5.76065 476.729 5.51415 474.896 5.49384C474.309 3.75774 473.612 2.40706 473.579 2.3449C473.458 2.1106 473.223 1.95602 472.96 1.93642C472.697 1.91631 472.442 2.03473 472.287 2.24842L468.46 7.51828C467.829 8.38674 467.574 9.44878 467.742 10.5089C467.867 11.2939 468.212 12.0077 468.736 12.5817C468.157 13.2702 467.136 14.523 466.018 16.0822V15.4162C466.018 14.9955 465.677 14.6545 465.256 14.6545C464.836 14.6545 464.495 14.9955 464.495 15.4162V18.3265C463.883 19.2835 463.288 20.2952 462.762 21.3223V17.0447C462.762 17.0446 462.762 17.0444 462.762 17.0442V15.7317L464.981 13.5124C465.278 13.2149 465.278 12.7326 464.981 12.4352C464.683 12.1377 464.201 12.1377 463.904 12.4352L462.761 13.5773V11.2197C464.614 10.8626 466.018 9.23001 466.018 7.27484V0.761749C466.018 0.497789 465.881 0.252618 465.657 0.113782C465.432 -0.0250537 465.152 -0.0376475 464.915 0.0804695C464.854 0.111243 463.496 0.794452 462 1.85466C460.505 0.794859 459.146 0.111751 459.084 0.0804695C458.848 -0.0376475 458.567 -0.0249522 458.343 0.113782C458.118 0.252618 457.981 0.497789 457.981 0.761749V7.27484C457.981 9.23001 459.385 10.8627 461.238 11.2197V15.2055L459.282 13.2493C458.984 12.9519 458.502 12.9519 458.205 13.2493C457.907 13.5468 457.907 14.0291 458.205 14.3265L461.238 17.36V21.3223C459.295 17.5318 456.413 13.9469 455.264 12.5817C455.787 12.0077 456.133 11.2939 456.257 10.5089C456.425 9.44878 456.171 8.38674 455.54 7.51828L451.712 2.24842C451.557 2.03473 451.302 1.91641 451.039 1.93642C450.776 1.95602 450.542 2.1106 450.42 2.3449C450.388 2.40706 449.69 3.75784 449.103 5.49394C447.271 5.51446 445.769 5.76065 445.702 5.77192C445.441 5.81519 445.222 5.99018 445.121 6.23443C445.021 6.47869 445.055 6.75738 445.21 6.97096L449.037 12.2408C449.668 13.1093 450.599 13.6801 451.659 13.8483C451.872 13.8821 452.085 13.8987 452.297 13.8987C452.903 13.8987 453.496 13.7612 454.04 13.4964C454.275 13.7765 454.6 14.1701 454.985 14.6546H454.316C453.896 14.6546 453.555 14.9956 453.555 15.4163C453.555 15.8369 453.896 16.178 454.316 16.178H456.156C457.269 17.6745 458.559 19.5576 459.608 21.5004C458.369 20.2829 456.992 19.1905 455.488 18.2337C450.927 15.3309 446.817 14.6889 446.644 14.663C446.425 14.6302 446.202 14.6945 446.034 14.8391C445.866 14.9838 445.769 15.1946 445.769 15.4163C445.769 15.538 445.786 18.4449 447.239 22.492C448.551 26.1465 451.337 31.4532 457.167 36.1351V38.9264L453.936 51.042C453.875 51.2706 453.924 51.5147 454.068 51.7024C454.213 51.89 454.436 52 454.672 52H469.327C469.563 52 469.787 51.89 469.931 51.7024C470.075 51.5147 470.124 51.2707 470.063 51.042L466.832 38.9264V36.1351C472.662 31.4532 475.448 26.1465 476.76 22.492C478.213 18.4449 478.23 15.538 478.23 15.4163C478.23 15.1946 478.133 14.9838 477.965 14.8391C477.797 14.6944 477.575 14.63 477.355 14.663C477.254 14.6781 474.848 15.0503 471.679 16.5087C469.603 17.4642 466.908 19.0373 464.385 21.5132C465.435 19.5663 466.728 17.6781 467.844 16.178H469.683C470.104 16.178 470.445 15.8369 470.445 15.4163C470.445 14.9956 470.104 14.6546 469.683 14.6546H469.015C469.399 14.1702 469.724 13.7766 469.959 13.4965C470.503 13.7612 471.096 13.8987 471.702 13.8987ZM476.797 7.12219L475.647 8.70585C475.592 8.18453 475.494 7.62635 475.347 7.02855C475.883 7.04683 476.38 7.08289 476.797 7.12219ZM448.353 8.70585L447.202 7.12189C447.619 7.08258 448.115 7.04673 448.653 7.02865C448.506 7.62645 448.407 8.18453 448.353 8.70585ZM453.755 11.8982C453.215 12.2898 452.556 12.448 451.898 12.3436C451.24 12.2392 450.662 11.8849 450.27 11.3457C449.178 9.84172 450.336 6.28765 451.238 4.18826L454.307 8.41345C455.115 9.52647 454.868 11.0897 453.755 11.8982ZM464.494 2.05494V4.0091C464.145 3.62022 463.735 3.22738 463.266 2.83118C463.711 2.53076 464.134 2.26802 464.494 2.05494ZM459.505 7.27484V2.05281C461.469 3.22139 464.494 5.41605 464.494 7.27484C464.494 8.6505 463.375 9.76962 462 9.76962C460.624 9.76962 459.505 8.6505 459.505 7.27484ZM448.696 22.0425C447.795 19.5519 447.472 17.4989 447.357 16.3672C448.777 16.7132 451.631 17.5847 454.67 19.519C457.189 21.1214 459.327 23.1267 461.026 25.4793C462.991 28.2009 464.373 31.4034 465.142 35.0079H463.368C462.394 30.7348 460.477 27.0974 457.663 24.1897C457.37 23.8874 456.888 23.8795 456.585 24.1722C456.283 24.4647 456.275 24.947 456.568 25.2492C459.111 27.8767 460.868 31.1568 461.802 35.0079H458.197C452.617 30.5533 449.951 25.5089 448.696 22.0425ZM465.309 36.5313V38.2644H458.691V36.5313H465.309ZM468.335 50.4765H465.109L464.98 49.5095C464.925 49.0926 464.541 48.7994 464.124 48.8552C463.707 48.9107 463.414 49.2938 463.47 49.7108L463.572 50.4764H455.664L458.514 39.7878H462.147L463.036 46.4542C463.087 46.8371 463.414 47.1154 463.79 47.1154C463.823 47.1154 463.857 47.1132 463.891 47.1086C464.308 47.053 464.601 46.6699 464.546 46.2529L463.684 39.7878H465.485L468.335 50.4765ZM472.268 17.9149C474.109 17.0628 475.694 16.5989 476.642 16.3677C476.527 17.4998 476.204 19.5524 475.303 22.0425C474.107 25.3475 471.628 30.0873 466.564 34.3824C465.831 31.1082 464.609 28.1478 462.921 25.5537C465.849 21.468 469.603 19.1481 472.268 17.9149ZM469.692 8.41345L472.761 4.18755C473.664 6.28593 474.824 9.83878 473.729 11.3457C473.338 11.8849 472.76 12.2392 472.102 12.3436C471.443 12.4479 470.784 12.2898 470.245 11.8982C469.132 11.0897 468.884 9.52658 469.692 8.41345Z" fill="#AE7C78"/>
<path d="M455.133 21.9564C454.594 21.5509 454.028 21.1633 453.449 20.8045C453.091 20.5828 452.622 20.6931 452.4 21.0507C452.179 21.4083 452.289 21.8778 452.646 22.0994C453.186 22.434 453.714 22.7954 454.216 23.1732C454.354 23.2766 454.514 23.3266 454.674 23.3266C454.905 23.3266 455.133 23.2219 455.283 23.0231C455.536 22.687 455.469 22.2095 455.133 21.9564Z" fill="#AE7C78"/>
</g>
<path d="M114.544 32.8L109.728 41.104L104.864 32.8H103.888V44H105.024V35.088L109.424 42.576H109.984L114.384 35.04V44H115.52V32.8H114.544ZM122.494 44.08C124.958 44.08 126.766 42.288 126.766 39.792C126.766 37.296 124.958 35.52 122.494 35.52C120.03 35.52 118.206 37.296 118.206 39.792C118.206 42.288 120.03 44.08 122.494 44.08ZM122.494 43.072C120.702 43.072 119.358 41.76 119.358 39.792C119.358 37.824 120.702 36.512 122.494 36.512C124.286 36.512 125.614 37.824 125.614 39.792C125.614 41.76 124.286 43.072 122.494 43.072ZM138.865 44H140.225L137.201 39.68L139.985 35.584H138.753L136.273 39.28H134.449V35.584H133.313V39.28H131.489L129.025 35.584H127.793L130.577 39.664L127.553 44H128.913L131.489 40.256H133.313V44H134.449V40.256H136.273L138.865 44ZM149.195 39.792C149.195 37.264 147.483 35.52 145.115 35.52C142.747 35.52 141.003 37.296 141.003 39.792C141.003 42.288 142.795 44.08 145.419 44.08C146.747 44.08 147.915 43.6 148.667 42.704L148.027 41.968C147.387 42.704 146.475 43.072 145.451 43.072C143.611 43.072 142.267 41.904 142.139 40.144H149.179C149.179 40.016 149.195 39.888 149.195 39.792ZM145.115 36.496C146.763 36.496 147.963 37.648 148.107 39.296H142.139C142.283 37.648 143.483 36.496 145.115 36.496ZM160.062 35.584L156.43 41.648L152.862 35.584H151.71V44H152.75V37.328L156.158 42.976H156.67L160.078 37.344V44H161.118V35.584H160.062ZM172.058 44.08C173.482 44.08 174.682 43.504 175.354 42.416L174.506 41.84C173.93 42.688 173.034 43.072 172.058 43.072C170.218 43.072 168.874 41.776 168.874 39.792C168.874 37.824 170.218 36.512 172.058 36.512C173.034 36.512 173.93 36.912 174.506 37.76L175.354 37.184C174.682 36.08 173.482 35.52 172.058 35.52C169.546 35.52 167.722 37.28 167.722 39.792C167.722 42.304 169.546 44.08 172.058 44.08ZM180.885 44.08C183.349 44.08 185.157 42.288 185.157 39.792C185.157 37.296 183.349 35.52 180.885 35.52C178.421 35.52 176.597 37.296 176.597 39.792C176.597 42.288 178.421 44.08 180.885 44.08ZM180.885 43.072C179.093 43.072 177.749 41.76 177.749 39.792C177.749 37.824 179.093 36.512 180.885 36.512C182.677 36.512 184.005 37.824 184.005 39.792C184.005 41.76 182.677 43.072 180.885 43.072ZM191.665 35.792C190.081 35.792 188.817 36.576 188.145 37.872C188.257 35.184 189.345 33.984 191.729 33.456L195.281 32.64L195.089 31.6L191.313 32.464C188.449 33.136 187.057 34.896 187.057 38.56C187.057 41.984 188.625 44.096 191.457 44.096C193.969 44.096 195.697 42.384 195.697 39.904C195.697 37.472 194.033 35.792 191.665 35.792ZM191.489 43.152C189.697 43.152 188.417 41.824 188.417 39.936C188.417 38.064 189.681 36.816 191.489 36.816C193.297 36.816 194.545 38.064 194.545 39.936C194.545 41.824 193.281 43.152 191.489 43.152ZM202.468 35.52C201.076 35.52 199.908 36.128 199.22 37.248V35.584H198.132V47.104H199.268V42.416C199.972 43.504 201.124 44.08 202.468 44.08C204.868 44.08 206.66 42.352 206.66 39.792C206.66 37.248 204.868 35.52 202.468 35.52ZM202.388 43.072C200.596 43.072 199.252 41.76 199.252 39.792C199.252 37.84 200.596 36.512 202.388 36.512C204.164 36.512 205.524 37.84 205.524 39.792C205.524 41.76 204.164 43.072 202.388 43.072ZM211.95 35.52C210.622 35.52 209.374 35.936 208.526 36.656L209.038 37.504C209.726 36.896 210.75 36.512 211.838 36.512C213.406 36.512 214.222 37.296 214.222 38.736V39.248H211.549C209.134 39.248 208.302 40.336 208.302 41.632C208.302 43.088 209.47 44.08 211.374 44.08C212.766 44.08 213.758 43.552 214.27 42.688V44H215.358V38.784C215.358 36.608 214.126 35.52 211.95 35.52ZM211.549 43.184C210.206 43.184 209.422 42.576 209.422 41.6C209.422 40.736 209.95 40.096 211.582 40.096H214.222V41.472C213.774 42.576 212.83 43.184 211.549 43.184ZM224.302 35.584H216.798V36.592H219.982V44H221.118V36.592H224.302V35.584ZM229.56 38.56L227.08 38.528V35.584H225.944V44L229.336 44.016C231.576 44.048 232.792 43.04 232.792 41.248C232.792 39.52 231.672 38.576 229.56 38.56ZM229.272 43.152L227.08 43.12V39.376L229.272 39.408C230.84 39.424 231.64 40 231.64 41.248C231.64 42.512 230.824 43.168 229.272 43.152ZM243.227 35.792C241.643 35.792 240.379 36.576 239.707 37.872C239.819 35.184 240.907 33.984 243.291 33.456L246.843 32.64L246.651 31.6L242.875 32.464C240.011 33.136 238.619 34.896 238.619 38.56C238.619 41.984 240.187 44.096 243.019 44.096C245.531 44.096 247.259 42.384 247.259 39.904C247.259 37.472 245.595 35.792 243.227 35.792ZM243.051 43.152C241.259 43.152 239.979 41.824 239.979 39.936C239.979 38.064 241.243 36.816 243.051 36.816C244.859 36.816 246.107 38.064 246.107 39.936C246.107 41.824 244.843 43.152 243.051 43.152ZM255.492 35.584L252.324 42.736L249.156 35.584H247.972L251.732 43.984L251.364 44.8C250.884 45.856 250.372 46.208 249.62 46.208C249.012 46.208 248.5 45.984 248.084 45.568L247.556 46.416C248.068 46.928 248.82 47.184 249.604 47.184C250.804 47.184 251.7 46.656 252.404 45.008L256.612 35.584H255.492ZM264.542 44H265.886L262.334 39.664L265.646 35.584H264.414L261.454 39.28H259.518V35.584H258.382V44H259.518V40.256H261.438L264.542 44ZM274.758 39.792C274.758 37.264 273.046 35.52 270.678 35.52C268.31 35.52 266.566 37.296 266.566 39.792C266.566 42.288 268.358 44.08 270.982 44.08C272.31 44.08 273.478 43.6 274.23 42.704L273.59 41.968C272.95 42.704 272.038 43.072 271.014 43.072C269.174 43.072 267.83 41.904 267.702 40.144H274.742C274.742 40.016 274.758 39.888 274.758 39.792ZM270.678 36.496C272.326 36.496 273.526 37.648 273.67 39.296H267.702C267.846 37.648 269.046 36.496 270.678 36.496ZM282.817 35.584H275.313V36.592H278.497V44H279.633V36.592H282.817V35.584ZM288.647 44H289.671L295.271 37.312V44H296.407V35.584H295.399L289.783 42.272V35.584H288.647V44ZM303.85 35.584V44H304.986V36.592H310.266V44H311.402V35.584H303.85ZM322.008 39.792C322.008 37.264 320.296 35.52 317.928 35.52C315.56 35.52 313.816 37.296 313.816 39.792C313.816 42.288 315.608 44.08 318.232 44.08C319.56 44.08 320.728 43.6 321.48 42.704L320.84 41.968C320.2 42.704 319.288 43.072 318.264 43.072C316.424 43.072 315.08 41.904 314.952 40.144H321.992C321.992 40.016 322.008 39.888 322.008 39.792ZM317.928 36.496C319.576 36.496 320.776 37.648 320.92 39.296H314.952C315.096 37.648 316.296 36.496 317.928 36.496ZM328.858 35.52C327.466 35.52 326.298 36.128 325.61 37.248V35.584H324.522V47.104H325.658V42.416C326.362 43.504 327.514 44.08 328.858 44.08C331.258 44.08 333.05 42.352 333.05 39.792C333.05 37.248 331.258 35.52 328.858 35.52ZM328.778 43.072C326.986 43.072 325.642 41.76 325.642 39.792C325.642 37.84 326.986 36.512 328.778 36.512C330.554 36.512 331.914 37.84 331.914 39.792C331.914 41.76 330.554 43.072 328.778 43.072ZM342.867 39.792C342.867 37.264 341.155 35.52 338.787 35.52C336.419 35.52 334.675 37.296 334.675 39.792C334.675 42.288 336.467 44.08 339.091 44.08C340.419 44.08 341.587 43.6 342.339 42.704L341.699 41.968C341.059 42.704 340.147 43.072 339.123 43.072C337.283 43.072 335.939 41.904 335.811 40.144H342.851C342.851 40.016 342.867 39.888 342.867 39.792ZM338.787 36.496C340.435 36.496 341.635 37.648 341.779 39.296H335.811C335.955 37.648 337.155 36.496 338.787 36.496ZM352.106 43.008V35.584H345.898L345.786 38.4C345.674 40.672 345.466 42.928 344.218 43.008H343.738V46.032H344.81V44H352.346V46.032H353.418V43.008H352.106ZM346.826 38.464L346.922 36.592H350.97V43.008H345.722C346.57 42.368 346.746 40.384 346.826 38.464ZM358.528 35.52C357.2 35.52 355.952 35.936 355.104 36.656L355.616 37.504C356.304 36.896 357.328 36.512 358.416 36.512C359.984 36.512 360.8 37.296 360.8 38.736V39.248H358.128C355.712 39.248 354.88 40.336 354.88 41.632C354.88 43.088 356.048 44.08 357.952 44.08C359.344 44.08 360.336 43.552 360.848 42.688V44H361.936V38.784C361.936 36.608 360.704 35.52 358.528 35.52ZM358.128 43.184C356.784 43.184 356 42.576 356 41.6C356 40.736 356.528 40.096 358.16 40.096H360.8V41.472C360.352 42.576 359.408 43.184 358.128 43.184ZM370.88 35.584H363.376V36.592H366.56V44H367.696V36.592H370.88V35.584ZM376.138 38.56L373.658 38.528V35.584H372.522V44L375.914 44.016C378.154 44.048 379.37 43.04 379.37 41.248C379.37 39.52 378.25 38.576 376.138 38.56ZM375.85 43.152L373.658 43.12V39.376L375.85 39.408C377.418 39.424 378.218 40 378.218 41.248C378.218 42.512 377.402 43.168 375.85 43.152ZM110.992 59.792C110.992 57.264 109.28 55.52 106.912 55.52C104.544 55.52 102.8 57.296 102.8 59.792C102.8 62.288 104.592 64.08 107.216 64.08C108.544 64.08 109.712 63.6 110.464 62.704L109.824 61.968C109.184 62.704 108.272 63.072 107.248 63.072C105.408 63.072 104.064 61.904 103.936 60.144H110.976C110.976 60.016 110.992 59.888 110.992 59.792ZM106.912 56.496C108.56 56.496 109.76 57.648 109.904 59.296H103.936C104.08 57.648 105.28 56.496 106.912 56.496ZM119.459 55.584H113.507V64H114.643V56.592H119.459V55.584ZM124.182 64.08C126.646 64.08 128.454 62.288 128.454 59.792C128.454 57.296 126.646 55.52 124.182 55.52C121.718 55.52 119.894 57.296 119.894 59.792C119.894 62.288 121.718 64.08 124.182 64.08ZM124.182 63.072C122.39 63.072 121.046 61.76 121.046 59.792C121.046 57.824 122.39 56.512 124.182 56.512C125.974 56.512 127.302 57.824 127.302 59.792C127.302 61.76 125.974 63.072 124.182 63.072ZM140.429 59.648C141.309 59.328 141.853 58.688 141.853 57.744C141.853 56.352 140.685 55.584 138.781 55.584H135.069V64H138.893C141.085 64 142.141 63.168 142.141 61.712C142.141 60.608 141.597 59.92 140.429 59.648ZM136.173 56.48H138.701C139.997 56.48 140.717 56.944 140.717 57.888C140.717 58.832 139.997 59.328 138.701 59.328H136.173V56.48ZM138.845 63.104H136.173V60.176H138.957C140.381 60.176 141.021 60.64 141.021 61.648C141.021 62.656 140.269 63.104 138.845 63.104ZM155.887 63.008V55.584H149.679L149.567 58.4C149.455 60.672 149.247 62.928 147.999 63.008H147.519V66.032H148.591V64H156.127V66.032H157.199V63.008H155.887ZM150.607 58.464L150.703 56.592H154.751V63.008H149.503C150.351 62.368 150.527 60.384 150.607 58.464ZM162.885 64.08C165.349 64.08 167.157 62.288 167.157 59.792C167.157 57.296 165.349 55.52 162.885 55.52C160.421 55.52 158.597 57.296 158.597 59.792C158.597 62.288 160.421 64.08 162.885 64.08ZM162.885 63.072C161.093 63.072 159.749 61.76 159.749 59.792C159.749 57.824 161.093 56.512 162.885 56.512C164.677 56.512 166.005 57.824 166.005 59.792C166.005 61.76 164.677 63.072 162.885 63.072ZM173.105 64.08C174.529 64.08 175.729 63.504 176.401 62.416L175.553 61.84C174.977 62.688 174.081 63.072 173.105 63.072C171.265 63.072 169.921 61.776 169.921 59.792C169.921 57.824 171.265 56.512 173.105 56.512C174.081 56.512 174.977 56.912 175.553 57.76L176.401 57.184C175.729 56.08 174.529 55.52 173.105 55.52C170.593 55.52 168.769 57.28 168.769 59.792C168.769 62.304 170.593 64.08 173.105 64.08ZM184.364 55.584H176.86V56.592H180.044V64H181.18V56.592H184.364V55.584ZM188.903 55.52C187.575 55.52 186.327 55.936 185.479 56.656L185.991 57.504C186.679 56.896 187.703 56.512 188.791 56.512C190.359 56.512 191.175 57.296 191.175 58.736V59.248H188.503C186.087 59.248 185.255 60.336 185.255 61.632C185.255 63.088 186.423 64.08 188.327 64.08C189.719 64.08 190.711 63.552 191.223 62.688V64H192.311V58.784C192.311 56.608 191.079 55.52 188.903 55.52ZM188.503 63.184C187.159 63.184 186.375 62.576 186.375 61.6C186.375 60.736 186.903 60.096 188.535 60.096H191.175V61.472C190.727 62.576 189.783 63.184 188.503 63.184ZM200.695 59.648C201.575 59.328 202.119 58.688 202.119 57.744C202.119 56.352 200.951 55.584 199.047 55.584H195.335V64H199.159C201.351 64 202.407 63.168 202.407 61.712C202.407 60.608 201.863 59.92 200.695 59.648ZM196.439 56.48H198.967C200.263 56.48 200.983 56.944 200.983 57.888C200.983 58.832 200.263 59.328 198.967 59.328H196.439V56.48ZM199.111 63.104H196.439V60.176H199.223C200.647 60.176 201.287 60.64 201.287 61.648C201.287 62.656 200.535 63.104 199.111 63.104ZM211.229 64H212.573L209.021 59.664L212.333 55.584H211.101L208.141 59.28H206.205V55.584H205.069V64H206.205V60.256H208.125L211.229 64ZM219.914 55.584L216.746 62.736L213.578 55.584H212.394L216.154 63.984L215.786 64.8C215.306 65.856 214.794 66.208 214.042 66.208C213.434 66.208 212.922 65.984 212.506 65.568L211.978 66.416C212.49 66.928 213.242 67.184 214.026 67.184C215.226 67.184 216.122 66.656 216.826 65.008L221.034 55.584H219.914ZM232.351 59.648C233.231 59.328 233.775 58.688 233.775 57.744C233.775 56.352 232.607 55.584 230.703 55.584H226.991V64H230.815C233.007 64 234.063 63.168 234.063 61.712C234.063 60.608 233.519 59.92 232.351 59.648ZM228.095 56.48H230.623C231.919 56.48 232.639 56.944 232.639 57.888C232.639 58.832 231.919 59.328 230.623 59.328H228.095V56.48ZM230.767 63.104H228.095V60.176H230.879C232.303 60.176 232.943 60.64 232.943 61.648C232.943 62.656 232.191 63.104 230.767 63.104ZM240.245 64.08C241.669 64.08 242.869 63.504 243.541 62.416L242.693 61.84C242.117 62.688 241.221 63.072 240.245 63.072C238.405 63.072 237.061 61.776 237.061 59.792C237.061 57.824 238.405 56.512 240.245 56.512C241.221 56.512 242.117 56.912 242.693 57.76L243.541 57.184C242.869 56.08 241.669 55.52 240.245 55.52C237.733 55.52 235.909 57.28 235.909 59.792C235.909 62.304 237.733 64.08 240.245 64.08ZM252.976 59.792C252.976 57.264 251.264 55.52 248.896 55.52C246.528 55.52 244.784 57.296 244.784 59.792C244.784 62.288 246.576 64.08 249.2 64.08C250.528 64.08 251.696 63.6 252.448 62.704L251.808 61.968C251.168 62.704 250.256 63.072 249.232 63.072C247.392 63.072 246.048 61.904 245.92 60.144H252.96C252.96 60.016 252.976 59.888 252.976 59.792ZM248.896 56.496C250.544 56.496 251.744 57.648 251.888 59.296H245.92C246.064 57.648 247.264 56.496 248.896 56.496ZM261.443 55.584H255.491V64H256.627V56.592H261.443V55.584ZM266.166 64.08C268.63 64.08 270.438 62.288 270.438 59.792C270.438 57.296 268.63 55.52 266.166 55.52C263.702 55.52 261.878 57.296 261.878 59.792C261.878 62.288 263.702 64.08 266.166 64.08ZM266.166 63.072C264.374 63.072 263.03 61.76 263.03 59.792C263.03 57.824 264.374 56.512 266.166 56.512C267.958 56.512 269.286 57.824 269.286 59.792C269.286 61.76 267.958 63.072 266.166 63.072ZM281.15 59.616C282.126 59.296 282.782 58.624 282.782 57.744C282.782 56.368 281.31 55.488 279.39 55.488C278.366 55.488 277.31 55.728 276.27 56.272L276.59 57.152C277.486 56.688 278.414 56.464 279.278 56.464C280.622 56.464 281.614 56.976 281.614 57.904C281.614 58.736 280.75 59.232 279.518 59.232H278.142V60.064H279.582C280.99 60.064 281.854 60.592 281.854 61.488C281.854 62.512 280.718 63.12 279.198 63.12C278.174 63.12 277.086 62.8 276.302 62.208L275.918 63.056C276.814 63.744 278.046 64.096 279.246 64.096C281.342 64.096 283.022 63.104 283.022 61.584C283.022 60.592 282.334 59.888 281.15 59.616ZM288.496 55.52C287.168 55.52 285.92 55.936 285.072 56.656L285.584 57.504C286.272 56.896 287.296 56.512 288.384 56.512C289.952 56.512 290.768 57.296 290.768 58.736V59.248H288.096C285.68 59.248 284.848 60.336 284.848 61.632C284.848 63.088 286.016 64.08 287.92 64.08C289.312 64.08 290.304 63.552 290.816 62.688V64H291.904V58.784C291.904 56.608 290.672 55.52 288.496 55.52ZM288.096 63.184C286.752 63.184 285.968 62.576 285.968 61.6C285.968 60.736 286.496 60.096 288.128 60.096H290.768V61.472C290.32 62.576 289.376 63.184 288.096 63.184ZM304.332 55.584V59.584C303.388 59.984 302.492 60.208 301.676 60.208C300.268 60.208 299.388 59.568 299.388 58.288V55.584H298.252V58.352C298.252 60.256 299.5 61.136 301.468 61.136C302.412 61.136 303.388 60.912 304.332 60.496V64H305.468V55.584H304.332ZM311.59 55.52C310.262 55.52 309.014 55.936 308.166 56.656L308.678 57.504C309.366 56.896 310.39 56.512 311.478 56.512C313.046 56.512 313.862 57.296 313.862 58.736V59.248H311.19C308.774 59.248 307.942 60.336 307.942 61.632C307.942 63.088 309.11 64.08 311.014 64.08C312.406 64.08 313.398 63.552 313.91 62.688V64H314.998V58.784C314.998 56.608 313.766 55.52 311.59 55.52ZM311.19 63.184C309.846 63.184 309.062 62.576 309.062 61.6C309.062 60.736 309.59 60.096 311.222 60.096H313.862V61.472C313.414 62.576 312.47 63.184 311.19 63.184ZM321.542 64.08C322.966 64.08 324.166 63.504 324.838 62.416L323.99 61.84C323.414 62.688 322.518 63.072 321.542 63.072C319.702 63.072 318.358 61.776 318.358 59.792C318.358 57.824 319.702 56.512 321.542 56.512C322.518 56.512 323.414 56.912 323.99 57.76L324.838 57.184C324.166 56.08 322.966 55.52 321.542 55.52C319.03 55.52 317.206 57.28 317.206 59.792C317.206 62.304 319.03 64.08 321.542 64.08ZM327.43 64.08C327.894 64.08 328.294 63.696 328.294 63.2C328.294 62.704 327.894 62.336 327.43 62.336C326.966 62.336 326.582 62.704 326.582 63.2C326.582 63.696 326.966 64.08 327.43 64.08Z" fill="#AE7C78"/>
<path d="M103.744 16H108.544C111.344 16 112.896 14.784 112.896 12.592C112.896 10.496 111.488 9.36 108.816 9.36H105.328V6.16H112.192V4.8H103.744V16ZM105.328 14.736V10.624H108.48C110.352 10.624 111.296 11.28 111.296 12.656C111.296 14.016 110.32 14.736 108.48 14.736H105.328ZM119.015 10.4L116.727 10.384V7.52H115.191V16L118.759 16.016C121.031 16.032 122.311 15.008 122.311 13.168C122.311 11.424 121.159 10.416 119.015 10.4ZM123.575 16H125.111V7.52H123.575V16ZM118.647 14.848L116.727 14.832V11.504L118.647 11.536C120.039 11.552 120.759 12.032 120.759 13.152C120.759 14.288 120.023 14.864 118.647 14.848ZM131.793 16.096C133.313 16.096 134.577 15.456 135.249 14.272L134.081 13.536C133.537 14.368 132.705 14.752 131.777 14.752C130.113 14.752 128.865 13.6 128.865 11.76C128.865 9.952 130.113 8.784 131.777 8.784C132.705 8.784 133.537 9.168 134.081 10L135.249 9.248C134.577 8.064 133.313 7.44 131.793 7.44C129.185 7.44 127.313 9.232 127.313 11.76C127.313 14.288 129.185 16.096 131.793 16.096ZM143.449 7.52H135.705V8.864H138.809V16H140.345V8.864H143.449V7.52ZM149.515 7.44C148.267 7.44 147.179 7.92 146.491 8.864V7.52H145.019V19.104H146.555V14.72C147.259 15.632 148.315 16.096 149.515 16.096C151.995 16.096 153.803 14.368 153.803 11.76C153.803 9.168 151.995 7.44 149.515 7.44ZM149.387 14.752C147.771 14.752 146.539 13.568 146.539 11.76C146.539 9.968 147.771 8.784 149.387 8.784C151.019 8.784 152.251 9.968 152.251 11.76C152.251 13.568 151.019 14.752 149.387 14.752ZM158.981 7.44C157.621 7.44 156.357 7.824 155.477 8.528L156.117 9.68C156.773 9.12 157.797 8.768 158.805 8.768C160.325 8.768 161.077 9.52 161.077 10.816V11.12H158.645C156.117 11.12 155.237 12.24 155.237 13.6C155.237 15.072 156.453 16.096 158.373 16.096C159.701 16.096 160.645 15.648 161.157 14.88V16H162.613V10.88C162.613 8.56 161.301 7.44 158.981 7.44ZM158.629 14.912C157.461 14.912 156.757 14.384 156.757 13.536C156.757 12.816 157.189 12.224 158.709 12.224H161.077V13.408C160.693 14.384 159.781 14.912 158.629 14.912ZM168.467 7.52C166.195 7.52 164.739 8.528 164.739 10.496C164.739 11.84 165.459 12.72 166.723 13.104L164.659 16H166.307L168.163 13.312H168.339H170.803V16H172.179V7.52H168.467ZM166.307 10.544C166.307 9.36 167.107 8.864 168.515 8.864H170.803V12.208H168.451C167.027 12.208 166.307 11.68 166.307 10.544ZM186.8 14.656V7.52H180.224L180.096 10.384C179.984 12.528 179.776 14.592 178.56 14.656H178.112V17.968H179.568V16H186.656V17.968H188.096V14.656H186.8ZM181.504 10.496L181.584 8.864H185.264V14.656H180.512C181.28 13.984 181.44 12.256 181.504 10.496ZM193.729 16.096C196.273 16.096 198.129 14.288 198.129 11.76C198.129 9.232 196.273 7.44 193.729 7.44C191.185 7.44 189.313 9.232 189.313 11.76C189.313 14.288 191.185 16.096 193.729 16.096ZM193.729 14.752C192.097 14.752 190.865 13.568 190.865 11.76C190.865 9.952 192.097 8.784 193.729 8.784C195.361 8.784 196.577 9.952 196.577 11.76C196.577 13.568 195.361 14.752 193.729 14.752ZM204.043 16.096C205.563 16.096 206.827 15.456 207.499 14.272L206.331 13.536C205.787 14.368 204.955 14.752 204.027 14.752C202.363 14.752 201.115 13.6 201.115 11.76C201.115 9.952 202.363 8.784 204.027 8.784C204.955 8.784 205.787 9.168 206.331 10L207.499 9.248C206.827 8.064 205.563 7.44 204.043 7.44C201.435 7.44 199.563 9.232 199.563 11.76C199.563 14.288 201.435 16.096 204.043 16.096ZM215.699 7.52H207.955V8.864H211.059V16H212.595V8.864H215.699V7.52ZM220.293 7.44C218.933 7.44 217.669 7.824 216.789 8.528L217.429 9.68C218.085 9.12 219.109 8.768 220.117 8.768C221.637 8.768 222.389 9.52 222.389 10.816V11.12H219.957C217.429 11.12 216.549 12.24 216.549 13.6C216.549 15.072 217.765 16.096 219.685 16.096C221.013 16.096 221.957 15.648 222.469 14.88V16H223.925V10.88C223.925 8.56 222.613 7.44 220.293 7.44ZM219.941 14.912C218.773 14.912 218.069 14.384 218.069 13.536C218.069 12.816 218.501 12.224 220.021 12.224H222.389V13.408C222.005 14.384 221.093 14.912 219.941 14.912ZM232.467 11.6C233.315 11.264 233.827 10.608 233.827 9.696C233.827 8.304 232.627 7.52 230.627 7.52H226.691V16H230.771C233.027 16 234.115 15.136 234.115 13.664C234.115 12.592 233.587 11.888 232.467 11.6ZM228.195 8.704H230.499C231.667 8.704 232.291 9.104 232.291 9.92C232.291 10.736 231.667 11.168 230.499 11.168H228.195V8.704ZM230.659 14.816H228.195V12.272H230.755C232.019 12.272 232.579 12.688 232.579 13.568C232.579 14.432 231.923 14.816 230.659 14.816ZM242.663 16H244.471L241.031 11.6L244.247 7.52H242.599L239.847 11.104H238.055V7.52H236.519V16H238.055V12.416H239.815L242.663 16ZM248.95 7.44C247.59 7.44 246.326 7.824 245.446 8.528L246.086 9.68C246.742 9.12 247.766 8.768 248.774 8.768C250.294 8.768 251.046 9.52 251.046 10.816V11.12H248.614C246.086 11.12 245.206 12.24 245.206 13.6C245.206 15.072 246.422 16.096 248.342 16.096C249.67 16.096 250.614 15.648 251.126 14.88V16H252.582V10.88C252.582 8.56 251.27 7.44 248.95 7.44ZM248.598 14.912C247.43 14.912 246.726 14.384 246.726 13.536C246.726 12.816 247.158 12.224 248.678 12.224H251.046V13.408C250.662 14.384 249.75 14.912 248.598 14.912Z" fill="#AE7C78"/>
<path d="M80.6664 24.0056C79.8139 22.987 78.651 22.3251 77.3179 22.0776L76.6917 13.5574C77.3094 13.5515 77.8362 13.1054 77.9438 12.4942L78.1853 11.1213C78.4441 9.64958 78.0831 8.19685 77.1947 7.13571C76.3075 6.0757 75.0084 5.49175 73.5368 5.49175H64.1109L64.5698 2.88347C64.7 2.14266 64.5113 1.40296 64.0523 0.854493C63.5978 0.311484 62.9144 0 62.1773 0H15.7792C14.4072 0 13.1442 1.07012 12.9038 2.43664L8.79883 25.7766C8.67583 26.4766 9.14205 27.1442 9.84033 27.2675C9.9156 27.2809 9.99055 27.2873 10.0647 27.2873C10.676 27.2873 11.2178 26.8478 11.3275 26.2234L15.4327 2.88347C15.4597 2.72982 15.657 2.57408 15.7791 2.57408L62.0166 2.57424L57.9356 25.7766C57.8124 26.4766 58.2787 27.1442 58.9771 27.2675C59.6746 27.3907 60.3413 26.9235 60.4643 26.2234L60.7603 24.5409H76.1138C76.1143 24.5409 76.115 24.5409 76.1156 24.5409C76.1162 24.5409 76.1169 24.5409 76.1174 24.5409C77.1786 24.5411 78.0954 24.9385 78.6994 25.6599C79.115 26.1565 79.3575 26.7746 79.4158 27.4584H75.151C74.5278 27.4584 73.9948 27.9069 73.8865 28.5221L73.4037 31.268C73.2091 32.3743 73.4839 33.4704 74.1575 34.2753C74.8219 35.0692 75.8304 35.5244 76.9241 35.5244H78.1329L77.1368 41.1878H73.747C73.5239 40.0551 73.0356 39.0132 72.2955 38.1293C70.9824 36.5602 69.05 35.6962 66.8547 35.6962C63.3346 35.6962 59.9385 38.0051 58.3486 41.188H57.8325L59.4986 31.7152C59.6216 31.0151 59.1555 30.3475 58.4571 30.2242C57.7591 30.1006 57.0929 30.5681 56.9699 31.2683L55.2251 41.1881H31.4576C31.2345 40.0554 30.7462 39.0137 30.0061 38.1297C28.6928 36.5605 26.7605 35.6965 24.5651 35.6965C21.045 35.6965 17.6489 38.0054 16.059 41.1883L8.69537 41.1881L9.20851 38.2708H14.9788C15.6878 38.2708 16.2628 37.6945 16.2628 36.9836C16.2628 36.2728 15.688 35.6964 14.9788 35.6964H1.28397C0.574961 35.6964 0 36.2726 0 36.9836C0 37.6944 0.574801 38.2708 1.28397 38.2708H6.60133L6.14248 40.8791C6.01227 41.6199 6.20093 42.3596 6.65994 42.908C7.11447 43.451 7.79785 43.7625 8.53489 43.7625H15.2253C14.8772 45.946 15.4003 48.0029 16.7096 49.5669C18.0229 51.136 19.9552 52 22.1506 52C26.5203 52 30.7009 48.4435 31.4698 44.0716C31.4879 43.968 31.5021 43.8651 31.5165 43.7624H57.5149C57.1667 45.9456 57.6898 48.0026 58.9992 49.5667C60.3125 51.1359 62.2448 51.9998 64.4402 51.9998C68.8099 51.9998 72.9905 48.4433 73.7594 44.0714C73.7775 43.9679 73.7917 43.865 73.8061 43.7622H78.2144C78.8376 43.7622 79.3706 43.3138 79.4789 42.6985L81.8937 28.9691C82.2214 27.1055 81.7856 25.3428 80.6664 24.0056ZM61.2134 21.9672L62.6924 13.5579H74.1173L74.7354 21.9672H61.2134ZM75.6564 10.6744L75.602 10.9837H63.145L63.6582 8.06615H73.5368C74.2362 8.06615 74.8367 8.32337 75.2275 8.79043C75.6327 9.27435 75.7852 9.94324 75.6564 10.6744ZM28.9411 43.6249C28.3786 46.8237 25.3323 49.4259 22.1506 49.4259C20.7274 49.4259 19.4936 48.8884 18.6766 47.9125C17.8361 46.9082 17.5158 45.5444 17.7748 44.0721C18.3374 40.8733 21.3836 38.2711 24.5653 38.2711C25.9884 38.2711 27.2223 38.8087 28.0392 39.7847C28.8797 40.7887 29.2 42.1526 28.9411 43.6249ZM71.2305 43.6249C70.6679 46.8237 67.6217 49.4259 64.44 49.4259C63.0169 49.4259 61.783 48.8884 60.9661 47.9123C60.1256 46.908 59.8053 45.5443 60.0642 44.0719C60.6267 40.8731 63.673 38.2709 66.8547 38.2709C68.2777 38.2709 69.5117 38.8085 70.3287 39.7845C71.1692 40.7887 71.4895 42.1526 71.2305 43.6249ZM78.5857 32.9508H76.9241V32.9507C76.5815 32.9507 76.3051 32.8367 76.1246 32.6212C75.9373 32.3974 75.869 32.0758 75.9324 31.7156L76.2283 30.0335H79.0988L78.5857 32.9508Z" fill="#AE7C78"/>
<path d="M25.4748 42.0427C25.0202 41.4997 24.3368 41.1882 23.5996 41.1882C22.2276 41.1882 20.9646 42.2584 20.7242 43.6249C20.594 44.3657 20.7827 45.1054 21.2417 45.6539C21.6962 46.1969 22.3796 46.5083 23.1166 46.5083C24.4887 46.5083 25.7517 45.4381 25.9921 44.0719C26.1224 43.3309 25.9339 42.5914 25.4748 42.0427Z" fill="#AE7C78"/>
<path d="M67.7637 42.0427C67.309 41.4997 66.6256 41.1882 65.8888 41.1882C64.5167 41.1882 63.2537 42.2584 63.0135 43.6247C62.8833 44.3657 63.0716 45.1052 63.5308 45.6539C63.9853 46.1969 64.6687 46.5083 65.4057 46.5083C66.7778 46.5083 68.0408 45.4381 68.2812 44.0719C68.4116 43.3309 68.2229 42.5914 67.7637 42.0427Z" fill="#AE7C78"/>
<path d="M51.7904 35.6965H35.5212C34.8122 35.6965 34.2372 36.2728 34.2372 36.9837C34.2372 37.6945 34.812 38.2709 35.5212 38.2709H51.7904C52.4994 38.2709 53.0744 37.6947 53.0744 36.9837C53.0742 36.2728 52.4994 35.6965 51.7904 35.6965Z" fill="#AE7C78"/>
<path d="M28.6739 30.2048H4.98899C4.27998 30.2048 3.70502 30.7811 3.70502 31.492C3.70502 32.2028 4.27966 32.7792 4.98899 32.7792H28.6739C29.3829 32.7792 29.9578 32.203 29.9578 31.492C29.9578 30.7811 29.383 30.2048 28.6739 30.2048Z" fill="#AE7C78"/>
<path d="M53.1922 25.0263L48.4387 20.9075C47.9022 20.4429 47.0915 20.5018 46.6277 21.0397C46.1639 21.5775 46.223 22.3903 46.7595 22.8553L48.9036 24.7132H16.3482C15.6392 24.7132 15.0642 25.2895 15.0642 26.0004C15.0642 26.7112 15.639 27.2876 16.3482 27.2876H48.0894L45.4412 29.0464C44.8499 29.4388 44.6883 30.2376 45.0799 30.8302C45.3269 31.2042 45.7353 31.4066 46.1514 31.4066C46.3948 31.4066 46.6411 31.3373 46.8593 31.1923L53.0616 27.0735C53.3967 26.8513 53.6082 26.4845 53.6339 26.0825C53.6595 25.6803 53.4961 25.2895 53.1922 25.0263Z" fill="#AE7C78"/>
<defs>
<clipPath id="clip0">
<rect width="52" height="52" fill="white" transform="translate(436)"/>
</clipPath>
</defs>
</svg>
